G04 (created by PCBNEW (2013-07-07 BZR 4022)-stable) date Fri 01 Jul 2022 09:03:58 PM CDT*
%MOIN*%
G04 Gerber Fmt 3.4, Leading zero omitted, Abs format*
%FSLAX34Y34*%
G01*
G70*
G90*
G04 APERTURE LIST*
%ADD10C,0.00590551*%
%ADD11R,0.059X0.0885*%
%ADD12O,0.059X0.0885*%
%ADD13R,0.069X0.069*%
%ADD14C,0.069*%
%ADD15O,0.059X0.059*%
%ADD16R,0.0885X0.059*%
%ADD17O,0.0885X0.059*%
%ADD18R,0.064X0.059*%
%ADD19R,0.059X0.064*%
%ADD20C,0.035*%
%ADD21C,0.02*%
%ADD22C,0.04*%
%ADD23C,0.01*%
G04 APERTURE END LIST*
G54D10*
G54D11*
X72000Y-42352D03*
G54D12*
X73000Y-42352D03*
X74000Y-42352D03*
X75000Y-42352D03*
X76000Y-42352D03*
X76000Y-23647D03*
X75000Y-23647D03*
X74000Y-23647D03*
X73000Y-23647D03*
X72000Y-23647D03*
G54D13*
X34000Y-33500D03*
G54D14*
X34000Y-34500D03*
X34000Y-35500D03*
G54D13*
X34000Y-41000D03*
G54D14*
X34000Y-42000D03*
G54D15*
X55000Y-27500D03*
X55000Y-23500D03*
X69500Y-38500D03*
X69500Y-42500D03*
X70500Y-27500D03*
X70500Y-23500D03*
X78500Y-27500D03*
X78500Y-23500D03*
X68500Y-38500D03*
X68500Y-42500D03*
X70500Y-38500D03*
X70500Y-42500D03*
X69500Y-27500D03*
X69500Y-23500D03*
X77500Y-27500D03*
X77500Y-23500D03*
X79500Y-27500D03*
X79500Y-23500D03*
X54000Y-27500D03*
X54000Y-23500D03*
X54000Y-38500D03*
X54000Y-42500D03*
X62000Y-27500D03*
X62000Y-23500D03*
X53000Y-38500D03*
X53000Y-42500D03*
X55000Y-38500D03*
X55000Y-42500D03*
X48500Y-27500D03*
X48500Y-23500D03*
X47500Y-27500D03*
X47500Y-23500D03*
X39500Y-38500D03*
X39500Y-42500D03*
X37500Y-38500D03*
X37500Y-42500D03*
X39500Y-27500D03*
X39500Y-23500D03*
X46500Y-27500D03*
X46500Y-23500D03*
X38500Y-38500D03*
X38500Y-42500D03*
X38500Y-27500D03*
X38500Y-23500D03*
X64000Y-27500D03*
X64000Y-23500D03*
X63000Y-27500D03*
X63000Y-23500D03*
G54D16*
X70852Y-29500D03*
G54D17*
X70852Y-30500D03*
X70852Y-31500D03*
X70852Y-32500D03*
X68147Y-34500D03*
X68147Y-33500D03*
X68147Y-32500D03*
X68147Y-31500D03*
X70852Y-33500D03*
X70852Y-34500D03*
X70852Y-35500D03*
X68147Y-35500D03*
X68147Y-36500D03*
X68147Y-30500D03*
X70852Y-36500D03*
X68147Y-29500D03*
G54D16*
X72647Y-34500D03*
G54D17*
X72647Y-33500D03*
X72647Y-32500D03*
X72647Y-31500D03*
X75352Y-29500D03*
X75352Y-30500D03*
X75352Y-31500D03*
X75352Y-32500D03*
X72647Y-30500D03*
X72647Y-29500D03*
X72647Y-28500D03*
X75352Y-28500D03*
X75352Y-27500D03*
X75352Y-33500D03*
X72647Y-27500D03*
X75352Y-34500D03*
G54D16*
X57147Y-34500D03*
G54D17*
X57147Y-33500D03*
X57147Y-32500D03*
X57147Y-31500D03*
X59852Y-29500D03*
X59852Y-30500D03*
X59852Y-31500D03*
X59852Y-32500D03*
X57147Y-30500D03*
X57147Y-29500D03*
X57147Y-28500D03*
X59852Y-28500D03*
X59852Y-27500D03*
X59852Y-33500D03*
X57147Y-27500D03*
X59852Y-34500D03*
G54D16*
X55352Y-29500D03*
G54D17*
X55352Y-30500D03*
X55352Y-31500D03*
X55352Y-32500D03*
X52647Y-34500D03*
X52647Y-33500D03*
X52647Y-32500D03*
X52647Y-31500D03*
X55352Y-33500D03*
X55352Y-34500D03*
X55352Y-35500D03*
X52647Y-35500D03*
X52647Y-36500D03*
X52647Y-30500D03*
X55352Y-36500D03*
X52647Y-29500D03*
G54D16*
X39852Y-29500D03*
G54D17*
X39852Y-30500D03*
X39852Y-31500D03*
X39852Y-32500D03*
X37147Y-34500D03*
X37147Y-33500D03*
X37147Y-32500D03*
X37147Y-31500D03*
X39852Y-33500D03*
X39852Y-34500D03*
X39852Y-35500D03*
X37147Y-35500D03*
X37147Y-36500D03*
X37147Y-30500D03*
X39852Y-36500D03*
X37147Y-29500D03*
G54D16*
X41647Y-34500D03*
G54D17*
X41647Y-33500D03*
X41647Y-32500D03*
X41647Y-31500D03*
X44352Y-29500D03*
X44352Y-30500D03*
X44352Y-31500D03*
X44352Y-32500D03*
X41647Y-30500D03*
X41647Y-29500D03*
X41647Y-28500D03*
X44352Y-28500D03*
X44352Y-27500D03*
X44352Y-33500D03*
X41647Y-27500D03*
X44352Y-34500D03*
G54D16*
X33852Y-20000D03*
G54D17*
X33852Y-21000D03*
X33852Y-22000D03*
X33852Y-23000D03*
X33852Y-24000D03*
X33852Y-25000D03*
X33852Y-26000D03*
X28147Y-20000D03*
X28147Y-21000D03*
X28147Y-22000D03*
X33852Y-27000D03*
X33852Y-28000D03*
X33852Y-29000D03*
X33852Y-30000D03*
X33852Y-31000D03*
X28147Y-23000D03*
X28147Y-24000D03*
X28147Y-25000D03*
X28147Y-26000D03*
X28147Y-27000D03*
X28147Y-28000D03*
X28147Y-29000D03*
X28147Y-30000D03*
X28147Y-31000D03*
G54D11*
X41000Y-42352D03*
G54D12*
X42000Y-42352D03*
X43000Y-42352D03*
X44000Y-42352D03*
X45000Y-42352D03*
X45000Y-23647D03*
X44000Y-23647D03*
X43000Y-23647D03*
X42000Y-23647D03*
X41000Y-23647D03*
G54D11*
X56500Y-42352D03*
G54D12*
X57500Y-42352D03*
X58500Y-42352D03*
X59500Y-42352D03*
X60500Y-42352D03*
X60500Y-23647D03*
X59500Y-23647D03*
X58500Y-23647D03*
X57500Y-23647D03*
X56500Y-23647D03*
G54D15*
X30000Y-37500D03*
X34000Y-37500D03*
G54D18*
X31300Y-39000D03*
X32450Y-39000D03*
G54D19*
X52500Y-27950D03*
X52500Y-26800D03*
X68000Y-27950D03*
X68000Y-26800D03*
X37000Y-27950D03*
X37000Y-26800D03*
G54D20*
X66000Y-33500D03*
X64000Y-35500D03*
X50500Y-33500D03*
X48500Y-35500D03*
G54D21*
X52500Y-35500D02*
X47500Y-40500D01*
X47500Y-40500D02*
X34500Y-40500D01*
X34500Y-40500D02*
X34000Y-41000D01*
X37000Y-35500D02*
X34500Y-38000D01*
X34500Y-38000D02*
X34500Y-40500D01*
X34500Y-40500D02*
X34000Y-41000D01*
X68000Y-35500D02*
X62500Y-41000D01*
X62500Y-41000D02*
X34000Y-41000D01*
G54D22*
X34000Y-41000D02*
X35000Y-41000D01*
X35000Y-41000D02*
X36500Y-42500D01*
X36500Y-42500D02*
X36500Y-43000D01*
X36500Y-43000D02*
X37000Y-43500D01*
X37000Y-43500D02*
X40000Y-43500D01*
X40000Y-43500D02*
X41000Y-42500D01*
G54D21*
X34000Y-37500D02*
X33250Y-36750D01*
X33250Y-34250D02*
X34000Y-33500D01*
X33250Y-36750D02*
X33250Y-34250D01*
X34000Y-41000D02*
X34000Y-37500D01*
G54D23*
X75500Y-27500D02*
X75000Y-28000D01*
X75000Y-28000D02*
X68000Y-28000D01*
X44500Y-27500D02*
X44000Y-28000D01*
X44000Y-28000D02*
X37000Y-28000D01*
X60000Y-27500D02*
X59500Y-28000D01*
X59500Y-28000D02*
X52500Y-28000D01*
G54D22*
X28000Y-20000D02*
X29500Y-20000D01*
X29500Y-20000D02*
X31000Y-21500D01*
X31000Y-21500D02*
X31000Y-36000D01*
X31000Y-36000D02*
X34000Y-39000D01*
X34000Y-39000D02*
X34000Y-41000D01*
X72000Y-42500D02*
X71000Y-41500D01*
X71000Y-41500D02*
X42000Y-41500D01*
X42000Y-41500D02*
X41500Y-41500D01*
X41500Y-41500D02*
X41000Y-42000D01*
X41000Y-42000D02*
X41000Y-42500D01*
X56500Y-42500D02*
X55500Y-43500D01*
X42000Y-43500D02*
X41000Y-42500D01*
X55500Y-43500D02*
X42000Y-43500D01*
G54D23*
X37000Y-34500D02*
X34000Y-31500D01*
X34000Y-31500D02*
X34000Y-31000D01*
X52500Y-34500D02*
X52000Y-35000D01*
X37500Y-35000D02*
X37000Y-34500D01*
X52000Y-35000D02*
X37500Y-35000D01*
X52500Y-34500D02*
X53000Y-35000D01*
X67500Y-35000D02*
X68000Y-34500D01*
X53000Y-35000D02*
X67500Y-35000D01*
X37000Y-31500D02*
X35000Y-29500D01*
X35000Y-29000D02*
X34000Y-28000D01*
X35000Y-29500D02*
X35000Y-29000D01*
G54D22*
X68000Y-26750D02*
X67250Y-26000D01*
X67250Y-26000D02*
X40000Y-26000D01*
X40000Y-26000D02*
X37750Y-26000D01*
X37750Y-26000D02*
X37000Y-26750D01*
X52500Y-26750D02*
X52250Y-26500D01*
X37250Y-26500D02*
X37000Y-26750D01*
X52250Y-26500D02*
X37250Y-26500D01*
G54D23*
X37000Y-33500D02*
X35000Y-31500D01*
X35000Y-31000D02*
X34000Y-30000D01*
X35000Y-31500D02*
X35000Y-31000D01*
X52500Y-33500D02*
X52000Y-34000D01*
X37500Y-34000D02*
X37000Y-33500D01*
X52000Y-34000D02*
X37500Y-34000D01*
X52500Y-33500D02*
X53000Y-34000D01*
X67500Y-34000D02*
X68000Y-33500D01*
X53000Y-34000D02*
X67500Y-34000D01*
X52500Y-36500D02*
X53500Y-37500D01*
X66000Y-33500D02*
X68000Y-31500D01*
X62000Y-37500D02*
X64000Y-35500D01*
X53500Y-37500D02*
X62000Y-37500D01*
X37000Y-36500D02*
X38000Y-37500D01*
X50500Y-33500D02*
X52500Y-31500D01*
X46500Y-37500D02*
X48500Y-35500D01*
X38000Y-37500D02*
X46500Y-37500D01*
X72500Y-28500D02*
X70500Y-28500D01*
X68500Y-30500D02*
X68000Y-30500D01*
X70500Y-28500D02*
X68500Y-30500D01*
X41500Y-28500D02*
X39500Y-28500D01*
X37500Y-30500D02*
X37000Y-30500D01*
X39500Y-28500D02*
X37500Y-30500D01*
X57000Y-28500D02*
X55000Y-28500D01*
X53000Y-30500D02*
X52500Y-30500D01*
X55000Y-28500D02*
X53000Y-30500D01*
M02*
