G04 (created by PCBNEW (2013-07-07 BZR 4022)-stable) date Fri 01 Jul 2022 09:03:58 PM CDT*
%MOIN*%
G04 Gerber Fmt 3.4, Leading zero omitted, Abs format*
%FSLAX34Y34*%
G01*
G70*
G90*
G04 APERTURE LIST*
%ADD10C,0.00590551*%
%ADD11C,0.008*%
%ADD12C,0.01*%
%ADD13C,0.006*%
%ADD14C,0.005*%
G04 APERTURE END LIST*
G54D10*
G54D11*
X32695Y-41780D02*
X32733Y-41761D01*
X32790Y-41761D01*
X32847Y-41780D01*
X32885Y-41819D01*
X32904Y-41857D01*
X32923Y-41933D01*
X32923Y-41990D01*
X32904Y-42066D01*
X32885Y-42104D01*
X32847Y-42142D01*
X32790Y-42161D01*
X32752Y-42161D01*
X32695Y-42142D01*
X32676Y-42123D01*
X32676Y-41990D01*
X32752Y-41990D01*
X32504Y-42161D02*
X32504Y-41761D01*
X32276Y-42161D01*
X32276Y-41761D01*
X32085Y-42161D02*
X32085Y-41761D01*
X31990Y-41761D01*
X31933Y-41780D01*
X31895Y-41819D01*
X31876Y-41857D01*
X31857Y-41933D01*
X31857Y-41990D01*
X31876Y-42066D01*
X31895Y-42104D01*
X31933Y-42142D01*
X31990Y-42161D01*
X32085Y-42161D01*
X32714Y-40761D02*
X32904Y-40761D01*
X32923Y-40952D01*
X32904Y-40933D01*
X32866Y-40914D01*
X32771Y-40914D01*
X32733Y-40933D01*
X32714Y-40952D01*
X32695Y-40990D01*
X32695Y-41085D01*
X32714Y-41123D01*
X32733Y-41142D01*
X32771Y-41161D01*
X32866Y-41161D01*
X32904Y-41142D01*
X32923Y-41123D01*
X32580Y-40761D02*
X32447Y-41161D01*
X32314Y-40761D01*
X32771Y-35452D02*
X32714Y-35471D01*
X32695Y-35490D01*
X32676Y-35528D01*
X32676Y-35585D01*
X32695Y-35623D01*
X32714Y-35642D01*
X32752Y-35661D01*
X32904Y-35661D01*
X32904Y-35261D01*
X32771Y-35261D01*
X32733Y-35280D01*
X32714Y-35300D01*
X32695Y-35338D01*
X32695Y-35376D01*
X32714Y-35414D01*
X32733Y-35433D01*
X32771Y-35452D01*
X32904Y-35452D01*
X32314Y-35661D02*
X32504Y-35661D01*
X32504Y-35261D01*
X32180Y-35261D02*
X32180Y-35585D01*
X32161Y-35623D01*
X32142Y-35642D01*
X32104Y-35661D01*
X32028Y-35661D01*
X31990Y-35642D01*
X31971Y-35623D01*
X31952Y-35585D01*
X31952Y-35261D01*
X31761Y-35452D02*
X31628Y-35452D01*
X31571Y-35661D02*
X31761Y-35661D01*
X31761Y-35261D01*
X31571Y-35261D01*
X32771Y-34452D02*
X32714Y-34471D01*
X32695Y-34490D01*
X32676Y-34528D01*
X32676Y-34585D01*
X32695Y-34623D01*
X32714Y-34642D01*
X32752Y-34661D01*
X32904Y-34661D01*
X32904Y-34261D01*
X32771Y-34261D01*
X32733Y-34280D01*
X32714Y-34300D01*
X32695Y-34338D01*
X32695Y-34376D01*
X32714Y-34414D01*
X32733Y-34433D01*
X32771Y-34452D01*
X32904Y-34452D01*
X32314Y-34661D02*
X32504Y-34661D01*
X32504Y-34261D01*
X32200Y-34547D02*
X32009Y-34547D01*
X32238Y-34661D02*
X32104Y-34261D01*
X31971Y-34661D01*
X31609Y-34623D02*
X31628Y-34642D01*
X31685Y-34661D01*
X31723Y-34661D01*
X31780Y-34642D01*
X31819Y-34604D01*
X31838Y-34566D01*
X31857Y-34490D01*
X31857Y-34433D01*
X31838Y-34357D01*
X31819Y-34319D01*
X31780Y-34280D01*
X31723Y-34261D01*
X31685Y-34261D01*
X31628Y-34280D01*
X31609Y-34300D01*
X31438Y-34661D02*
X31438Y-34261D01*
X31209Y-34661D02*
X31380Y-34433D01*
X31209Y-34261D02*
X31438Y-34490D01*
X32771Y-33452D02*
X32714Y-33471D01*
X32695Y-33490D01*
X32676Y-33528D01*
X32676Y-33585D01*
X32695Y-33623D01*
X32714Y-33642D01*
X32752Y-33661D01*
X32904Y-33661D01*
X32904Y-33261D01*
X32771Y-33261D01*
X32733Y-33280D01*
X32714Y-33300D01*
X32695Y-33338D01*
X32695Y-33376D01*
X32714Y-33414D01*
X32733Y-33433D01*
X32771Y-33452D01*
X32904Y-33452D01*
X32276Y-33661D02*
X32409Y-33471D01*
X32504Y-33661D02*
X32504Y-33261D01*
X32352Y-33261D01*
X32314Y-33280D01*
X32295Y-33300D01*
X32276Y-33338D01*
X32276Y-33395D01*
X32295Y-33433D01*
X32314Y-33452D01*
X32352Y-33471D01*
X32504Y-33471D01*
X32028Y-33261D02*
X31952Y-33261D01*
X31914Y-33280D01*
X31876Y-33319D01*
X31857Y-33395D01*
X31857Y-33528D01*
X31876Y-33604D01*
X31914Y-33642D01*
X31952Y-33661D01*
X32028Y-33661D01*
X32066Y-33642D01*
X32104Y-33604D01*
X32123Y-33528D01*
X32123Y-33395D01*
X32104Y-33319D01*
X32066Y-33280D01*
X32028Y-33261D01*
X31723Y-33261D02*
X31628Y-33661D01*
X31552Y-33376D01*
X31476Y-33661D01*
X31380Y-33261D01*
X31228Y-33661D02*
X31228Y-33261D01*
X31000Y-33661D01*
X31000Y-33261D01*
G54D12*
X55000Y-27500D02*
X55000Y-27100D01*
X55000Y-27100D02*
X55400Y-27100D01*
X55400Y-27100D02*
X55400Y-23900D01*
X55400Y-23900D02*
X54600Y-23900D01*
X54600Y-23900D02*
X54600Y-27100D01*
X54600Y-27100D02*
X55000Y-27100D01*
X55000Y-23500D02*
X55000Y-23900D01*
X69500Y-38500D02*
X69500Y-38900D01*
X69500Y-38900D02*
X69100Y-38900D01*
X69100Y-38900D02*
X69100Y-42100D01*
X69100Y-42100D02*
X69900Y-42100D01*
X69900Y-42100D02*
X69900Y-38900D01*
X69900Y-38900D02*
X69500Y-38900D01*
X69500Y-42500D02*
X69500Y-42100D01*
X70500Y-27500D02*
X70500Y-27100D01*
X70500Y-27100D02*
X70900Y-27100D01*
X70900Y-27100D02*
X70900Y-23900D01*
X70900Y-23900D02*
X70100Y-23900D01*
X70100Y-23900D02*
X70100Y-27100D01*
X70100Y-27100D02*
X70500Y-27100D01*
X70500Y-23500D02*
X70500Y-23900D01*
X78500Y-27500D02*
X78500Y-27100D01*
X78500Y-27100D02*
X78900Y-27100D01*
X78900Y-27100D02*
X78900Y-23900D01*
X78900Y-23900D02*
X78100Y-23900D01*
X78100Y-23900D02*
X78100Y-27100D01*
X78100Y-27100D02*
X78500Y-27100D01*
X78500Y-23500D02*
X78500Y-23900D01*
X68500Y-38500D02*
X68500Y-38900D01*
X68500Y-38900D02*
X68100Y-38900D01*
X68100Y-38900D02*
X68100Y-42100D01*
X68100Y-42100D02*
X68900Y-42100D01*
X68900Y-42100D02*
X68900Y-38900D01*
X68900Y-38900D02*
X68500Y-38900D01*
X68500Y-42500D02*
X68500Y-42100D01*
X70500Y-38500D02*
X70500Y-38900D01*
X70500Y-38900D02*
X70100Y-38900D01*
X70100Y-38900D02*
X70100Y-42100D01*
X70100Y-42100D02*
X70900Y-42100D01*
X70900Y-42100D02*
X70900Y-38900D01*
X70900Y-38900D02*
X70500Y-38900D01*
X70500Y-42500D02*
X70500Y-42100D01*
X69500Y-27500D02*
X69500Y-27100D01*
X69500Y-27100D02*
X69900Y-27100D01*
X69900Y-27100D02*
X69900Y-23900D01*
X69900Y-23900D02*
X69100Y-23900D01*
X69100Y-23900D02*
X69100Y-27100D01*
X69100Y-27100D02*
X69500Y-27100D01*
X69500Y-23500D02*
X69500Y-23900D01*
X77500Y-27500D02*
X77500Y-27100D01*
X77500Y-27100D02*
X77900Y-27100D01*
X77900Y-27100D02*
X77900Y-23900D01*
X77900Y-23900D02*
X77100Y-23900D01*
X77100Y-23900D02*
X77100Y-27100D01*
X77100Y-27100D02*
X77500Y-27100D01*
X77500Y-23500D02*
X77500Y-23900D01*
X79500Y-27500D02*
X79500Y-27100D01*
X79500Y-27100D02*
X79900Y-27100D01*
X79900Y-27100D02*
X79900Y-23900D01*
X79900Y-23900D02*
X79100Y-23900D01*
X79100Y-23900D02*
X79100Y-27100D01*
X79100Y-27100D02*
X79500Y-27100D01*
X79500Y-23500D02*
X79500Y-23900D01*
X54000Y-27500D02*
X54000Y-27100D01*
X54000Y-27100D02*
X54400Y-27100D01*
X54400Y-27100D02*
X54400Y-23900D01*
X54400Y-23900D02*
X53600Y-23900D01*
X53600Y-23900D02*
X53600Y-27100D01*
X53600Y-27100D02*
X54000Y-27100D01*
X54000Y-23500D02*
X54000Y-23900D01*
X54000Y-38500D02*
X54000Y-38900D01*
X54000Y-38900D02*
X53600Y-38900D01*
X53600Y-38900D02*
X53600Y-42100D01*
X53600Y-42100D02*
X54400Y-42100D01*
X54400Y-42100D02*
X54400Y-38900D01*
X54400Y-38900D02*
X54000Y-38900D01*
X54000Y-42500D02*
X54000Y-42100D01*
X62000Y-27500D02*
X62000Y-27100D01*
X62000Y-27100D02*
X62400Y-27100D01*
X62400Y-27100D02*
X62400Y-23900D01*
X62400Y-23900D02*
X61600Y-23900D01*
X61600Y-23900D02*
X61600Y-27100D01*
X61600Y-27100D02*
X62000Y-27100D01*
X62000Y-23500D02*
X62000Y-23900D01*
X53000Y-38500D02*
X53000Y-38900D01*
X53000Y-38900D02*
X52600Y-38900D01*
X52600Y-38900D02*
X52600Y-42100D01*
X52600Y-42100D02*
X53400Y-42100D01*
X53400Y-42100D02*
X53400Y-38900D01*
X53400Y-38900D02*
X53000Y-38900D01*
X53000Y-42500D02*
X53000Y-42100D01*
X55000Y-38500D02*
X55000Y-38900D01*
X55000Y-38900D02*
X54600Y-38900D01*
X54600Y-38900D02*
X54600Y-42100D01*
X54600Y-42100D02*
X55400Y-42100D01*
X55400Y-42100D02*
X55400Y-38900D01*
X55400Y-38900D02*
X55000Y-38900D01*
X55000Y-42500D02*
X55000Y-42100D01*
X48500Y-27500D02*
X48500Y-27100D01*
X48500Y-27100D02*
X48900Y-27100D01*
X48900Y-27100D02*
X48900Y-23900D01*
X48900Y-23900D02*
X48100Y-23900D01*
X48100Y-23900D02*
X48100Y-27100D01*
X48100Y-27100D02*
X48500Y-27100D01*
X48500Y-23500D02*
X48500Y-23900D01*
X47500Y-27500D02*
X47500Y-27100D01*
X47500Y-27100D02*
X47900Y-27100D01*
X47900Y-27100D02*
X47900Y-23900D01*
X47900Y-23900D02*
X47100Y-23900D01*
X47100Y-23900D02*
X47100Y-27100D01*
X47100Y-27100D02*
X47500Y-27100D01*
X47500Y-23500D02*
X47500Y-23900D01*
X39500Y-38500D02*
X39500Y-38900D01*
X39500Y-38900D02*
X39100Y-38900D01*
X39100Y-38900D02*
X39100Y-42100D01*
X39100Y-42100D02*
X39900Y-42100D01*
X39900Y-42100D02*
X39900Y-38900D01*
X39900Y-38900D02*
X39500Y-38900D01*
X39500Y-42500D02*
X39500Y-42100D01*
X37500Y-38500D02*
X37500Y-38900D01*
X37500Y-38900D02*
X37100Y-38900D01*
X37100Y-38900D02*
X37100Y-42100D01*
X37100Y-42100D02*
X37900Y-42100D01*
X37900Y-42100D02*
X37900Y-38900D01*
X37900Y-38900D02*
X37500Y-38900D01*
X37500Y-42500D02*
X37500Y-42100D01*
X39500Y-27500D02*
X39500Y-27100D01*
X39500Y-27100D02*
X39900Y-27100D01*
X39900Y-27100D02*
X39900Y-23900D01*
X39900Y-23900D02*
X39100Y-23900D01*
X39100Y-23900D02*
X39100Y-27100D01*
X39100Y-27100D02*
X39500Y-27100D01*
X39500Y-23500D02*
X39500Y-23900D01*
X46500Y-27500D02*
X46500Y-27100D01*
X46500Y-27100D02*
X46900Y-27100D01*
X46900Y-27100D02*
X46900Y-23900D01*
X46900Y-23900D02*
X46100Y-23900D01*
X46100Y-23900D02*
X46100Y-27100D01*
X46100Y-27100D02*
X46500Y-27100D01*
X46500Y-23500D02*
X46500Y-23900D01*
X38500Y-38500D02*
X38500Y-38900D01*
X38500Y-38900D02*
X38100Y-38900D01*
X38100Y-38900D02*
X38100Y-42100D01*
X38100Y-42100D02*
X38900Y-42100D01*
X38900Y-42100D02*
X38900Y-38900D01*
X38900Y-38900D02*
X38500Y-38900D01*
X38500Y-42500D02*
X38500Y-42100D01*
X38500Y-27500D02*
X38500Y-27100D01*
X38500Y-27100D02*
X38900Y-27100D01*
X38900Y-27100D02*
X38900Y-23900D01*
X38900Y-23900D02*
X38100Y-23900D01*
X38100Y-23900D02*
X38100Y-27100D01*
X38100Y-27100D02*
X38500Y-27100D01*
X38500Y-23500D02*
X38500Y-23900D01*
X64000Y-27500D02*
X64000Y-27100D01*
X64000Y-27100D02*
X64400Y-27100D01*
X64400Y-27100D02*
X64400Y-23900D01*
X64400Y-23900D02*
X63600Y-23900D01*
X63600Y-23900D02*
X63600Y-27100D01*
X63600Y-27100D02*
X64000Y-27100D01*
X64000Y-23500D02*
X64000Y-23900D01*
X63000Y-27500D02*
X63000Y-27100D01*
X63000Y-27100D02*
X63400Y-27100D01*
X63400Y-27100D02*
X63400Y-23900D01*
X63400Y-23900D02*
X62600Y-23900D01*
X62600Y-23900D02*
X62600Y-27100D01*
X62600Y-27100D02*
X63000Y-27100D01*
X63000Y-23500D02*
X63000Y-23900D01*
X70500Y-29000D02*
X70500Y-37000D01*
X68500Y-29000D02*
X68500Y-37000D01*
X69500Y-29300D02*
G75*
G02X69200Y-29000I0J300D01*
G74*
G01*
X69800Y-29000D02*
G75*
G02X69500Y-29300I-300J0D01*
G74*
G01*
X68500Y-37000D02*
X70500Y-37000D01*
X70500Y-29000D02*
X68500Y-29000D01*
X73000Y-35000D02*
X73000Y-27000D01*
X75000Y-35000D02*
X75000Y-27000D01*
X74000Y-34700D02*
G75*
G02X74300Y-35000I0J-300D01*
G74*
G01*
X73700Y-35000D02*
G75*
G02X74000Y-34700I300J0D01*
G74*
G01*
X75000Y-27000D02*
X73000Y-27000D01*
X73000Y-35000D02*
X75000Y-35000D01*
X57500Y-35000D02*
X57500Y-27000D01*
X59500Y-35000D02*
X59500Y-27000D01*
X58500Y-34700D02*
G75*
G02X58800Y-35000I0J-300D01*
G74*
G01*
X58200Y-35000D02*
G75*
G02X58500Y-34700I300J0D01*
G74*
G01*
X59500Y-27000D02*
X57500Y-27000D01*
X57500Y-35000D02*
X59500Y-35000D01*
X55000Y-29000D02*
X55000Y-37000D01*
X53000Y-29000D02*
X53000Y-37000D01*
X54000Y-29300D02*
G75*
G02X53700Y-29000I0J300D01*
G74*
G01*
X54300Y-29000D02*
G75*
G02X54000Y-29300I-300J0D01*
G74*
G01*
X53000Y-37000D02*
X55000Y-37000D01*
X55000Y-29000D02*
X53000Y-29000D01*
X39500Y-29000D02*
X39500Y-37000D01*
X37500Y-29000D02*
X37500Y-37000D01*
X38500Y-29300D02*
G75*
G02X38200Y-29000I0J300D01*
G74*
G01*
X38800Y-29000D02*
G75*
G02X38500Y-29300I-300J0D01*
G74*
G01*
X37500Y-37000D02*
X39500Y-37000D01*
X39500Y-29000D02*
X37500Y-29000D01*
X42000Y-35000D02*
X42000Y-27000D01*
X44000Y-35000D02*
X44000Y-27000D01*
X43000Y-34700D02*
G75*
G02X43300Y-35000I0J-300D01*
G74*
G01*
X42700Y-35000D02*
G75*
G02X43000Y-34700I300J0D01*
G74*
G01*
X44000Y-27000D02*
X42000Y-27000D01*
X42000Y-35000D02*
X44000Y-35000D01*
X32500Y-20000D02*
X32500Y-18000D01*
X32500Y-18000D02*
X29500Y-18000D01*
X29500Y-18000D02*
X29500Y-20000D01*
X29500Y-20000D02*
X32500Y-20000D01*
X34500Y-18500D02*
X34500Y-31500D01*
X27500Y-31500D02*
X27500Y-18500D01*
X27500Y-18500D02*
X34500Y-18500D01*
X34500Y-31500D02*
X27500Y-31500D01*
X26750Y-55500D02*
G75*
G03X26750Y-55500I-1750J0D01*
G74*
G01*
X26750Y-20500D02*
G75*
G03X26750Y-20500I-1750J0D01*
G74*
G01*
X81750Y-20500D02*
G75*
G03X81750Y-20500I-1750J0D01*
G74*
G01*
X81750Y-55500D02*
G75*
G03X81750Y-55500I-1750J0D01*
G74*
G01*
X52100Y-28400D02*
X52100Y-26350D01*
X52900Y-28400D02*
X52900Y-26350D01*
X52900Y-26350D02*
X52100Y-26350D01*
X52100Y-28400D02*
X52900Y-28400D01*
X67600Y-28400D02*
X67600Y-26350D01*
X68400Y-28400D02*
X68400Y-26350D01*
X68400Y-26350D02*
X67600Y-26350D01*
X67600Y-28400D02*
X68400Y-28400D01*
X36600Y-28400D02*
X36600Y-26350D01*
X37400Y-28400D02*
X37400Y-26350D01*
X37400Y-26350D02*
X36600Y-26350D01*
X36600Y-28400D02*
X37400Y-28400D01*
G54D13*
X55121Y-26250D02*
X54978Y-26150D01*
X55121Y-26078D02*
X54821Y-26078D01*
X54821Y-26192D01*
X54835Y-26221D01*
X54850Y-26235D01*
X54878Y-26250D01*
X54921Y-26250D01*
X54950Y-26235D01*
X54964Y-26221D01*
X54978Y-26192D01*
X54978Y-26078D01*
X55121Y-26392D02*
X55121Y-26450D01*
X55107Y-26478D01*
X55092Y-26492D01*
X55050Y-26521D01*
X54992Y-26535D01*
X54878Y-26535D01*
X54850Y-26521D01*
X54835Y-26507D01*
X54821Y-26478D01*
X54821Y-26421D01*
X54835Y-26392D01*
X54850Y-26378D01*
X54878Y-26364D01*
X54950Y-26364D01*
X54978Y-26378D01*
X54992Y-26392D01*
X55007Y-26421D01*
X55007Y-26478D01*
X54992Y-26507D01*
X54978Y-26521D01*
X54950Y-26535D01*
X54921Y-24614D02*
X55121Y-24614D01*
X54807Y-24542D02*
X55021Y-24471D01*
X55021Y-24657D01*
X54821Y-24742D02*
X54821Y-24942D01*
X55121Y-24814D01*
X69621Y-39507D02*
X69478Y-39407D01*
X69621Y-39335D02*
X69321Y-39335D01*
X69321Y-39450D01*
X69335Y-39478D01*
X69350Y-39492D01*
X69378Y-39507D01*
X69421Y-39507D01*
X69450Y-39492D01*
X69464Y-39478D01*
X69478Y-39450D01*
X69478Y-39335D01*
X69350Y-39621D02*
X69335Y-39635D01*
X69321Y-39664D01*
X69321Y-39735D01*
X69335Y-39764D01*
X69350Y-39778D01*
X69378Y-39792D01*
X69407Y-39792D01*
X69450Y-39778D01*
X69621Y-39607D01*
X69621Y-39792D01*
X69350Y-39907D02*
X69335Y-39921D01*
X69321Y-39950D01*
X69321Y-40021D01*
X69335Y-40050D01*
X69350Y-40064D01*
X69378Y-40078D01*
X69407Y-40078D01*
X69450Y-40064D01*
X69621Y-39892D01*
X69621Y-40078D01*
X69421Y-41214D02*
X69621Y-41214D01*
X69307Y-41142D02*
X69521Y-41071D01*
X69521Y-41257D01*
X69321Y-41342D02*
X69321Y-41542D01*
X69621Y-41414D01*
X70621Y-26107D02*
X70478Y-26007D01*
X70621Y-25935D02*
X70321Y-25935D01*
X70321Y-26050D01*
X70335Y-26078D01*
X70350Y-26092D01*
X70378Y-26107D01*
X70421Y-26107D01*
X70450Y-26092D01*
X70464Y-26078D01*
X70478Y-26050D01*
X70478Y-25935D01*
X70350Y-26221D02*
X70335Y-26235D01*
X70321Y-26264D01*
X70321Y-26335D01*
X70335Y-26364D01*
X70350Y-26378D01*
X70378Y-26392D01*
X70407Y-26392D01*
X70450Y-26378D01*
X70621Y-26207D01*
X70621Y-26392D01*
X70621Y-26678D02*
X70621Y-26507D01*
X70621Y-26592D02*
X70321Y-26592D01*
X70364Y-26564D01*
X70392Y-26535D01*
X70407Y-26507D01*
X70421Y-24614D02*
X70621Y-24614D01*
X70307Y-24542D02*
X70521Y-24471D01*
X70521Y-24657D01*
X70321Y-24742D02*
X70321Y-24942D01*
X70621Y-24814D01*
X78621Y-26107D02*
X78478Y-26007D01*
X78621Y-25935D02*
X78321Y-25935D01*
X78321Y-26050D01*
X78335Y-26078D01*
X78350Y-26092D01*
X78378Y-26107D01*
X78421Y-26107D01*
X78450Y-26092D01*
X78464Y-26078D01*
X78478Y-26050D01*
X78478Y-25935D01*
X78350Y-26221D02*
X78335Y-26235D01*
X78321Y-26264D01*
X78321Y-26335D01*
X78335Y-26364D01*
X78350Y-26378D01*
X78378Y-26392D01*
X78407Y-26392D01*
X78450Y-26378D01*
X78621Y-26207D01*
X78621Y-26392D01*
X78321Y-26578D02*
X78321Y-26607D01*
X78335Y-26635D01*
X78350Y-26650D01*
X78378Y-26664D01*
X78435Y-26678D01*
X78507Y-26678D01*
X78564Y-26664D01*
X78592Y-26650D01*
X78607Y-26635D01*
X78621Y-26607D01*
X78621Y-26578D01*
X78607Y-26550D01*
X78592Y-26535D01*
X78564Y-26521D01*
X78507Y-26507D01*
X78435Y-26507D01*
X78378Y-26521D01*
X78350Y-26535D01*
X78335Y-26550D01*
X78321Y-26578D01*
X78421Y-24614D02*
X78621Y-24614D01*
X78307Y-24542D02*
X78521Y-24471D01*
X78521Y-24657D01*
X78321Y-24742D02*
X78321Y-24942D01*
X78621Y-24814D01*
X68621Y-39507D02*
X68478Y-39407D01*
X68621Y-39335D02*
X68321Y-39335D01*
X68321Y-39450D01*
X68335Y-39478D01*
X68350Y-39492D01*
X68378Y-39507D01*
X68421Y-39507D01*
X68450Y-39492D01*
X68464Y-39478D01*
X68478Y-39450D01*
X68478Y-39335D01*
X68621Y-39792D02*
X68621Y-39621D01*
X68621Y-39707D02*
X68321Y-39707D01*
X68364Y-39678D01*
X68392Y-39650D01*
X68407Y-39621D01*
X68321Y-39892D02*
X68321Y-40078D01*
X68435Y-39978D01*
X68435Y-40021D01*
X68450Y-40050D01*
X68464Y-40064D01*
X68492Y-40078D01*
X68564Y-40078D01*
X68592Y-40064D01*
X68607Y-40050D01*
X68621Y-40021D01*
X68621Y-39935D01*
X68607Y-39907D01*
X68592Y-39892D01*
X68421Y-41214D02*
X68621Y-41214D01*
X68307Y-41142D02*
X68521Y-41071D01*
X68521Y-41257D01*
X68321Y-41342D02*
X68321Y-41542D01*
X68621Y-41414D01*
X70621Y-39507D02*
X70478Y-39407D01*
X70621Y-39335D02*
X70321Y-39335D01*
X70321Y-39450D01*
X70335Y-39478D01*
X70350Y-39492D01*
X70378Y-39507D01*
X70421Y-39507D01*
X70450Y-39492D01*
X70464Y-39478D01*
X70478Y-39450D01*
X70478Y-39335D01*
X70621Y-39792D02*
X70621Y-39621D01*
X70621Y-39707D02*
X70321Y-39707D01*
X70364Y-39678D01*
X70392Y-39650D01*
X70407Y-39621D01*
X70350Y-39907D02*
X70335Y-39921D01*
X70321Y-39950D01*
X70321Y-40021D01*
X70335Y-40050D01*
X70350Y-40064D01*
X70378Y-40078D01*
X70407Y-40078D01*
X70450Y-40064D01*
X70621Y-39892D01*
X70621Y-40078D01*
X70421Y-41214D02*
X70621Y-41214D01*
X70307Y-41142D02*
X70521Y-41071D01*
X70521Y-41257D01*
X70321Y-41342D02*
X70321Y-41542D01*
X70621Y-41414D01*
X69621Y-26107D02*
X69478Y-26007D01*
X69621Y-25935D02*
X69321Y-25935D01*
X69321Y-26050D01*
X69335Y-26078D01*
X69350Y-26092D01*
X69378Y-26107D01*
X69421Y-26107D01*
X69450Y-26092D01*
X69464Y-26078D01*
X69478Y-26050D01*
X69478Y-25935D01*
X69621Y-26392D02*
X69621Y-26221D01*
X69621Y-26307D02*
X69321Y-26307D01*
X69364Y-26278D01*
X69392Y-26250D01*
X69407Y-26221D01*
X69621Y-26678D02*
X69621Y-26507D01*
X69621Y-26592D02*
X69321Y-26592D01*
X69364Y-26564D01*
X69392Y-26535D01*
X69407Y-26507D01*
X69421Y-24614D02*
X69621Y-24614D01*
X69307Y-24542D02*
X69521Y-24471D01*
X69521Y-24657D01*
X69321Y-24742D02*
X69321Y-24942D01*
X69621Y-24814D01*
X77621Y-26107D02*
X77478Y-26007D01*
X77621Y-25935D02*
X77321Y-25935D01*
X77321Y-26050D01*
X77335Y-26078D01*
X77350Y-26092D01*
X77378Y-26107D01*
X77421Y-26107D01*
X77450Y-26092D01*
X77464Y-26078D01*
X77478Y-26050D01*
X77478Y-25935D01*
X77621Y-26392D02*
X77621Y-26221D01*
X77621Y-26307D02*
X77321Y-26307D01*
X77364Y-26278D01*
X77392Y-26250D01*
X77407Y-26221D01*
X77321Y-26578D02*
X77321Y-26607D01*
X77335Y-26635D01*
X77350Y-26650D01*
X77378Y-26664D01*
X77435Y-26678D01*
X77507Y-26678D01*
X77564Y-26664D01*
X77592Y-26650D01*
X77607Y-26635D01*
X77621Y-26607D01*
X77621Y-26578D01*
X77607Y-26550D01*
X77592Y-26535D01*
X77564Y-26521D01*
X77507Y-26507D01*
X77435Y-26507D01*
X77378Y-26521D01*
X77350Y-26535D01*
X77335Y-26550D01*
X77321Y-26578D01*
X77421Y-24614D02*
X77621Y-24614D01*
X77307Y-24542D02*
X77521Y-24471D01*
X77521Y-24657D01*
X77321Y-24742D02*
X77321Y-24942D01*
X77621Y-24814D01*
X79621Y-26107D02*
X79478Y-26007D01*
X79621Y-25935D02*
X79321Y-25935D01*
X79321Y-26050D01*
X79335Y-26078D01*
X79350Y-26092D01*
X79378Y-26107D01*
X79421Y-26107D01*
X79450Y-26092D01*
X79464Y-26078D01*
X79478Y-26050D01*
X79478Y-25935D01*
X79350Y-26221D02*
X79335Y-26235D01*
X79321Y-26264D01*
X79321Y-26335D01*
X79335Y-26364D01*
X79350Y-26378D01*
X79378Y-26392D01*
X79407Y-26392D01*
X79450Y-26378D01*
X79621Y-26207D01*
X79621Y-26392D01*
X79321Y-26664D02*
X79321Y-26521D01*
X79464Y-26507D01*
X79450Y-26521D01*
X79435Y-26550D01*
X79435Y-26621D01*
X79450Y-26650D01*
X79464Y-26664D01*
X79492Y-26678D01*
X79564Y-26678D01*
X79592Y-26664D01*
X79607Y-26650D01*
X79621Y-26621D01*
X79621Y-26550D01*
X79607Y-26521D01*
X79592Y-26507D01*
X79621Y-24500D02*
X79621Y-24328D01*
X79621Y-24414D02*
X79321Y-24414D01*
X79364Y-24385D01*
X79392Y-24357D01*
X79407Y-24328D01*
X79350Y-24614D02*
X79335Y-24628D01*
X79321Y-24657D01*
X79321Y-24728D01*
X79335Y-24757D01*
X79350Y-24771D01*
X79378Y-24785D01*
X79407Y-24785D01*
X79450Y-24771D01*
X79621Y-24600D01*
X79621Y-24785D01*
X79321Y-24971D02*
X79321Y-25000D01*
X79335Y-25028D01*
X79350Y-25042D01*
X79378Y-25057D01*
X79435Y-25071D01*
X79507Y-25071D01*
X79564Y-25057D01*
X79592Y-25042D01*
X79607Y-25028D01*
X79621Y-25000D01*
X79621Y-24971D01*
X79607Y-24942D01*
X79592Y-24928D01*
X79564Y-24914D01*
X79507Y-24900D01*
X79435Y-24900D01*
X79378Y-24914D01*
X79350Y-24928D01*
X79335Y-24942D01*
X79321Y-24971D01*
X54121Y-26107D02*
X53978Y-26007D01*
X54121Y-25935D02*
X53821Y-25935D01*
X53821Y-26050D01*
X53835Y-26078D01*
X53850Y-26092D01*
X53878Y-26107D01*
X53921Y-26107D01*
X53950Y-26092D01*
X53964Y-26078D01*
X53978Y-26050D01*
X53978Y-25935D01*
X54121Y-26392D02*
X54121Y-26221D01*
X54121Y-26307D02*
X53821Y-26307D01*
X53864Y-26278D01*
X53892Y-26250D01*
X53907Y-26221D01*
X54121Y-26535D02*
X54121Y-26592D01*
X54107Y-26621D01*
X54092Y-26635D01*
X54050Y-26664D01*
X53992Y-26678D01*
X53878Y-26678D01*
X53850Y-26664D01*
X53835Y-26650D01*
X53821Y-26621D01*
X53821Y-26564D01*
X53835Y-26535D01*
X53850Y-26521D01*
X53878Y-26507D01*
X53950Y-26507D01*
X53978Y-26521D01*
X53992Y-26535D01*
X54007Y-26564D01*
X54007Y-26621D01*
X53992Y-26650D01*
X53978Y-26664D01*
X53950Y-26678D01*
X53921Y-24614D02*
X54121Y-24614D01*
X53807Y-24542D02*
X54021Y-24471D01*
X54021Y-24657D01*
X53821Y-24742D02*
X53821Y-24942D01*
X54121Y-24814D01*
X54121Y-39507D02*
X53978Y-39407D01*
X54121Y-39335D02*
X53821Y-39335D01*
X53821Y-39450D01*
X53835Y-39478D01*
X53850Y-39492D01*
X53878Y-39507D01*
X53921Y-39507D01*
X53950Y-39492D01*
X53964Y-39478D01*
X53978Y-39450D01*
X53978Y-39335D01*
X54121Y-39792D02*
X54121Y-39621D01*
X54121Y-39707D02*
X53821Y-39707D01*
X53864Y-39678D01*
X53892Y-39650D01*
X53907Y-39621D01*
X53950Y-39964D02*
X53935Y-39935D01*
X53921Y-39921D01*
X53892Y-39907D01*
X53878Y-39907D01*
X53850Y-39921D01*
X53835Y-39935D01*
X53821Y-39964D01*
X53821Y-40021D01*
X53835Y-40050D01*
X53850Y-40064D01*
X53878Y-40078D01*
X53892Y-40078D01*
X53921Y-40064D01*
X53935Y-40050D01*
X53950Y-40021D01*
X53950Y-39964D01*
X53964Y-39935D01*
X53978Y-39921D01*
X54007Y-39907D01*
X54064Y-39907D01*
X54092Y-39921D01*
X54107Y-39935D01*
X54121Y-39964D01*
X54121Y-40021D01*
X54107Y-40050D01*
X54092Y-40064D01*
X54064Y-40078D01*
X54007Y-40078D01*
X53978Y-40064D01*
X53964Y-40050D01*
X53950Y-40021D01*
X53921Y-41214D02*
X54121Y-41214D01*
X53807Y-41142D02*
X54021Y-41071D01*
X54021Y-41257D01*
X53821Y-41342D02*
X53821Y-41542D01*
X54121Y-41414D01*
X62121Y-26107D02*
X61978Y-26007D01*
X62121Y-25935D02*
X61821Y-25935D01*
X61821Y-26050D01*
X61835Y-26078D01*
X61850Y-26092D01*
X61878Y-26107D01*
X61921Y-26107D01*
X61950Y-26092D01*
X61964Y-26078D01*
X61978Y-26050D01*
X61978Y-25935D01*
X62121Y-26392D02*
X62121Y-26221D01*
X62121Y-26307D02*
X61821Y-26307D01*
X61864Y-26278D01*
X61892Y-26250D01*
X61907Y-26221D01*
X61821Y-26492D02*
X61821Y-26692D01*
X62121Y-26564D01*
X61921Y-24614D02*
X62121Y-24614D01*
X61807Y-24542D02*
X62021Y-24471D01*
X62021Y-24657D01*
X61821Y-24742D02*
X61821Y-24942D01*
X62121Y-24814D01*
X53121Y-39650D02*
X52978Y-39550D01*
X53121Y-39478D02*
X52821Y-39478D01*
X52821Y-39592D01*
X52835Y-39621D01*
X52850Y-39635D01*
X52878Y-39650D01*
X52921Y-39650D01*
X52950Y-39635D01*
X52964Y-39621D01*
X52978Y-39592D01*
X52978Y-39478D01*
X52950Y-39821D02*
X52935Y-39792D01*
X52921Y-39778D01*
X52892Y-39764D01*
X52878Y-39764D01*
X52850Y-39778D01*
X52835Y-39792D01*
X52821Y-39821D01*
X52821Y-39878D01*
X52835Y-39907D01*
X52850Y-39921D01*
X52878Y-39935D01*
X52892Y-39935D01*
X52921Y-39921D01*
X52935Y-39907D01*
X52950Y-39878D01*
X52950Y-39821D01*
X52964Y-39792D01*
X52978Y-39778D01*
X53007Y-39764D01*
X53064Y-39764D01*
X53092Y-39778D01*
X53107Y-39792D01*
X53121Y-39821D01*
X53121Y-39878D01*
X53107Y-39907D01*
X53092Y-39921D01*
X53064Y-39935D01*
X53007Y-39935D01*
X52978Y-39921D01*
X52964Y-39907D01*
X52950Y-39878D01*
X52921Y-41214D02*
X53121Y-41214D01*
X52807Y-41142D02*
X53021Y-41071D01*
X53021Y-41257D01*
X52821Y-41342D02*
X52821Y-41542D01*
X53121Y-41414D01*
X55121Y-39650D02*
X54978Y-39550D01*
X55121Y-39478D02*
X54821Y-39478D01*
X54821Y-39592D01*
X54835Y-39621D01*
X54850Y-39635D01*
X54878Y-39650D01*
X54921Y-39650D01*
X54950Y-39635D01*
X54964Y-39621D01*
X54978Y-39592D01*
X54978Y-39478D01*
X54821Y-39750D02*
X54821Y-39950D01*
X55121Y-39821D01*
X54921Y-41214D02*
X55121Y-41214D01*
X54807Y-41142D02*
X55021Y-41071D01*
X55021Y-41257D01*
X54821Y-41342D02*
X54821Y-41542D01*
X55121Y-41414D01*
X48621Y-26107D02*
X48478Y-26007D01*
X48621Y-25935D02*
X48321Y-25935D01*
X48321Y-26050D01*
X48335Y-26078D01*
X48350Y-26092D01*
X48378Y-26107D01*
X48421Y-26107D01*
X48450Y-26092D01*
X48464Y-26078D01*
X48478Y-26050D01*
X48478Y-25935D01*
X48350Y-26221D02*
X48335Y-26235D01*
X48321Y-26264D01*
X48321Y-26335D01*
X48335Y-26364D01*
X48350Y-26378D01*
X48378Y-26392D01*
X48407Y-26392D01*
X48450Y-26378D01*
X48621Y-26207D01*
X48621Y-26392D01*
X48321Y-26492D02*
X48321Y-26678D01*
X48435Y-26578D01*
X48435Y-26621D01*
X48450Y-26650D01*
X48464Y-26664D01*
X48492Y-26678D01*
X48564Y-26678D01*
X48592Y-26664D01*
X48607Y-26650D01*
X48621Y-26621D01*
X48621Y-26535D01*
X48607Y-26507D01*
X48592Y-26492D01*
X48621Y-24500D02*
X48621Y-24328D01*
X48621Y-24414D02*
X48321Y-24414D01*
X48364Y-24385D01*
X48392Y-24357D01*
X48407Y-24328D01*
X48350Y-24614D02*
X48335Y-24628D01*
X48321Y-24657D01*
X48321Y-24728D01*
X48335Y-24757D01*
X48350Y-24771D01*
X48378Y-24785D01*
X48407Y-24785D01*
X48450Y-24771D01*
X48621Y-24600D01*
X48621Y-24785D01*
X48321Y-24971D02*
X48321Y-25000D01*
X48335Y-25028D01*
X48350Y-25042D01*
X48378Y-25057D01*
X48435Y-25071D01*
X48507Y-25071D01*
X48564Y-25057D01*
X48592Y-25042D01*
X48607Y-25028D01*
X48621Y-25000D01*
X48621Y-24971D01*
X48607Y-24942D01*
X48592Y-24928D01*
X48564Y-24914D01*
X48507Y-24900D01*
X48435Y-24900D01*
X48378Y-24914D01*
X48350Y-24928D01*
X48335Y-24942D01*
X48321Y-24971D01*
X47621Y-26250D02*
X47478Y-26150D01*
X47621Y-26078D02*
X47321Y-26078D01*
X47321Y-26192D01*
X47335Y-26221D01*
X47350Y-26235D01*
X47378Y-26250D01*
X47421Y-26250D01*
X47450Y-26235D01*
X47464Y-26221D01*
X47478Y-26192D01*
X47478Y-26078D01*
X47350Y-26364D02*
X47335Y-26378D01*
X47321Y-26407D01*
X47321Y-26478D01*
X47335Y-26507D01*
X47350Y-26521D01*
X47378Y-26535D01*
X47407Y-26535D01*
X47450Y-26521D01*
X47621Y-26350D01*
X47621Y-26535D01*
X47421Y-24614D02*
X47621Y-24614D01*
X47307Y-24542D02*
X47521Y-24471D01*
X47521Y-24657D01*
X47321Y-24742D02*
X47321Y-24942D01*
X47621Y-24814D01*
X39621Y-39650D02*
X39478Y-39550D01*
X39621Y-39478D02*
X39321Y-39478D01*
X39321Y-39592D01*
X39335Y-39621D01*
X39350Y-39635D01*
X39378Y-39650D01*
X39421Y-39650D01*
X39450Y-39635D01*
X39464Y-39621D01*
X39478Y-39592D01*
X39478Y-39478D01*
X39321Y-39750D02*
X39321Y-39935D01*
X39435Y-39835D01*
X39435Y-39878D01*
X39450Y-39907D01*
X39464Y-39921D01*
X39492Y-39935D01*
X39564Y-39935D01*
X39592Y-39921D01*
X39607Y-39907D01*
X39621Y-39878D01*
X39621Y-39792D01*
X39607Y-39764D01*
X39592Y-39750D01*
X39421Y-41214D02*
X39621Y-41214D01*
X39307Y-41142D02*
X39521Y-41071D01*
X39521Y-41257D01*
X39321Y-41342D02*
X39321Y-41542D01*
X39621Y-41414D01*
X37621Y-39650D02*
X37478Y-39550D01*
X37621Y-39478D02*
X37321Y-39478D01*
X37321Y-39592D01*
X37335Y-39621D01*
X37350Y-39635D01*
X37378Y-39650D01*
X37421Y-39650D01*
X37450Y-39635D01*
X37464Y-39621D01*
X37478Y-39592D01*
X37478Y-39478D01*
X37421Y-39907D02*
X37621Y-39907D01*
X37307Y-39835D02*
X37521Y-39764D01*
X37521Y-39950D01*
X37421Y-41214D02*
X37621Y-41214D01*
X37307Y-41142D02*
X37521Y-41071D01*
X37521Y-41257D01*
X37321Y-41342D02*
X37321Y-41542D01*
X37621Y-41414D01*
X39621Y-26250D02*
X39478Y-26150D01*
X39621Y-26078D02*
X39321Y-26078D01*
X39321Y-26192D01*
X39335Y-26221D01*
X39350Y-26235D01*
X39378Y-26250D01*
X39421Y-26250D01*
X39450Y-26235D01*
X39464Y-26221D01*
X39478Y-26192D01*
X39478Y-26078D01*
X39321Y-26521D02*
X39321Y-26378D01*
X39464Y-26364D01*
X39450Y-26378D01*
X39435Y-26407D01*
X39435Y-26478D01*
X39450Y-26507D01*
X39464Y-26521D01*
X39492Y-26535D01*
X39564Y-26535D01*
X39592Y-26521D01*
X39607Y-26507D01*
X39621Y-26478D01*
X39621Y-26407D01*
X39607Y-26378D01*
X39592Y-26364D01*
X39421Y-24614D02*
X39621Y-24614D01*
X39307Y-24542D02*
X39521Y-24471D01*
X39521Y-24657D01*
X39321Y-24742D02*
X39321Y-24942D01*
X39621Y-24814D01*
X46621Y-26107D02*
X46478Y-26007D01*
X46621Y-25935D02*
X46321Y-25935D01*
X46321Y-26050D01*
X46335Y-26078D01*
X46350Y-26092D01*
X46378Y-26107D01*
X46421Y-26107D01*
X46450Y-26092D01*
X46464Y-26078D01*
X46478Y-26050D01*
X46478Y-25935D01*
X46621Y-26392D02*
X46621Y-26221D01*
X46621Y-26307D02*
X46321Y-26307D01*
X46364Y-26278D01*
X46392Y-26250D01*
X46407Y-26221D01*
X46421Y-26650D02*
X46621Y-26650D01*
X46307Y-26578D02*
X46521Y-26507D01*
X46521Y-26692D01*
X46421Y-24614D02*
X46621Y-24614D01*
X46307Y-24542D02*
X46521Y-24471D01*
X46521Y-24657D01*
X46321Y-24742D02*
X46321Y-24942D01*
X46621Y-24814D01*
X38621Y-39507D02*
X38478Y-39407D01*
X38621Y-39335D02*
X38321Y-39335D01*
X38321Y-39450D01*
X38335Y-39478D01*
X38350Y-39492D01*
X38378Y-39507D01*
X38421Y-39507D01*
X38450Y-39492D01*
X38464Y-39478D01*
X38478Y-39450D01*
X38478Y-39335D01*
X38621Y-39792D02*
X38621Y-39621D01*
X38621Y-39707D02*
X38321Y-39707D01*
X38364Y-39678D01*
X38392Y-39650D01*
X38407Y-39621D01*
X38321Y-40064D02*
X38321Y-39921D01*
X38464Y-39907D01*
X38450Y-39921D01*
X38435Y-39950D01*
X38435Y-40021D01*
X38450Y-40050D01*
X38464Y-40064D01*
X38492Y-40078D01*
X38564Y-40078D01*
X38592Y-40064D01*
X38607Y-40050D01*
X38621Y-40021D01*
X38621Y-39950D01*
X38607Y-39921D01*
X38592Y-39907D01*
X38421Y-41214D02*
X38621Y-41214D01*
X38307Y-41142D02*
X38521Y-41071D01*
X38521Y-41257D01*
X38321Y-41342D02*
X38321Y-41542D01*
X38621Y-41414D01*
X38621Y-26107D02*
X38478Y-26007D01*
X38621Y-25935D02*
X38321Y-25935D01*
X38321Y-26050D01*
X38335Y-26078D01*
X38350Y-26092D01*
X38378Y-26107D01*
X38421Y-26107D01*
X38450Y-26092D01*
X38464Y-26078D01*
X38478Y-26050D01*
X38478Y-25935D01*
X38621Y-26392D02*
X38621Y-26221D01*
X38621Y-26307D02*
X38321Y-26307D01*
X38364Y-26278D01*
X38392Y-26250D01*
X38407Y-26221D01*
X38321Y-26650D02*
X38321Y-26592D01*
X38335Y-26564D01*
X38350Y-26550D01*
X38392Y-26521D01*
X38450Y-26507D01*
X38564Y-26507D01*
X38592Y-26521D01*
X38607Y-26535D01*
X38621Y-26564D01*
X38621Y-26621D01*
X38607Y-26650D01*
X38592Y-26664D01*
X38564Y-26678D01*
X38492Y-26678D01*
X38464Y-26664D01*
X38450Y-26650D01*
X38435Y-26621D01*
X38435Y-26564D01*
X38450Y-26535D01*
X38464Y-26521D01*
X38492Y-26507D01*
X38421Y-24614D02*
X38621Y-24614D01*
X38307Y-24542D02*
X38521Y-24471D01*
X38521Y-24657D01*
X38321Y-24742D02*
X38321Y-24942D01*
X38621Y-24814D01*
X64121Y-26107D02*
X63978Y-26007D01*
X64121Y-25935D02*
X63821Y-25935D01*
X63821Y-26050D01*
X63835Y-26078D01*
X63850Y-26092D01*
X63878Y-26107D01*
X63921Y-26107D01*
X63950Y-26092D01*
X63964Y-26078D01*
X63978Y-26050D01*
X63978Y-25935D01*
X63850Y-26221D02*
X63835Y-26235D01*
X63821Y-26264D01*
X63821Y-26335D01*
X63835Y-26364D01*
X63850Y-26378D01*
X63878Y-26392D01*
X63907Y-26392D01*
X63950Y-26378D01*
X64121Y-26207D01*
X64121Y-26392D01*
X63921Y-26650D02*
X64121Y-26650D01*
X63807Y-26578D02*
X64021Y-26507D01*
X64021Y-26692D01*
X64121Y-24500D02*
X64121Y-24328D01*
X64121Y-24414D02*
X63821Y-24414D01*
X63864Y-24385D01*
X63892Y-24357D01*
X63907Y-24328D01*
X63850Y-24614D02*
X63835Y-24628D01*
X63821Y-24657D01*
X63821Y-24728D01*
X63835Y-24757D01*
X63850Y-24771D01*
X63878Y-24785D01*
X63907Y-24785D01*
X63950Y-24771D01*
X64121Y-24600D01*
X64121Y-24785D01*
X63821Y-24971D02*
X63821Y-25000D01*
X63835Y-25028D01*
X63850Y-25042D01*
X63878Y-25057D01*
X63935Y-25071D01*
X64007Y-25071D01*
X64064Y-25057D01*
X64092Y-25042D01*
X64107Y-25028D01*
X64121Y-25000D01*
X64121Y-24971D01*
X64107Y-24942D01*
X64092Y-24928D01*
X64064Y-24914D01*
X64007Y-24900D01*
X63935Y-24900D01*
X63878Y-24914D01*
X63850Y-24928D01*
X63835Y-24942D01*
X63821Y-24971D01*
X63121Y-26250D02*
X62978Y-26150D01*
X63121Y-26078D02*
X62821Y-26078D01*
X62821Y-26192D01*
X62835Y-26221D01*
X62850Y-26235D01*
X62878Y-26250D01*
X62921Y-26250D01*
X62950Y-26235D01*
X62964Y-26221D01*
X62978Y-26192D01*
X62978Y-26078D01*
X62821Y-26507D02*
X62821Y-26450D01*
X62835Y-26421D01*
X62850Y-26407D01*
X62892Y-26378D01*
X62950Y-26364D01*
X63064Y-26364D01*
X63092Y-26378D01*
X63107Y-26392D01*
X63121Y-26421D01*
X63121Y-26478D01*
X63107Y-26507D01*
X63092Y-26521D01*
X63064Y-26535D01*
X62992Y-26535D01*
X62964Y-26521D01*
X62950Y-26507D01*
X62935Y-26478D01*
X62935Y-26421D01*
X62950Y-26392D01*
X62964Y-26378D01*
X62992Y-26364D01*
X62921Y-24614D02*
X63121Y-24614D01*
X62807Y-24542D02*
X63021Y-24471D01*
X63021Y-24657D01*
X62821Y-24742D02*
X62821Y-24942D01*
X63121Y-24814D01*
X69792Y-28721D02*
X69792Y-28421D01*
X69478Y-28692D02*
X69492Y-28707D01*
X69535Y-28721D01*
X69564Y-28721D01*
X69607Y-28707D01*
X69635Y-28678D01*
X69649Y-28650D01*
X69664Y-28592D01*
X69664Y-28550D01*
X69649Y-28492D01*
X69635Y-28464D01*
X69607Y-28435D01*
X69564Y-28421D01*
X69535Y-28421D01*
X69492Y-28435D01*
X69478Y-28450D01*
X69221Y-28521D02*
X69221Y-28721D01*
X69292Y-28407D02*
X69364Y-28621D01*
X69178Y-28621D01*
X69321Y-32021D02*
X69321Y-32221D01*
X69621Y-32092D01*
X69421Y-32464D02*
X69621Y-32464D01*
X69307Y-32392D02*
X69521Y-32321D01*
X69521Y-32507D01*
X69621Y-32621D02*
X69321Y-32621D01*
X69464Y-32621D02*
X69464Y-32792D01*
X69621Y-32792D02*
X69321Y-32792D01*
X69592Y-33107D02*
X69607Y-33092D01*
X69621Y-33050D01*
X69621Y-33021D01*
X69607Y-32978D01*
X69578Y-32950D01*
X69550Y-32935D01*
X69492Y-32921D01*
X69450Y-32921D01*
X69392Y-32935D01*
X69364Y-32950D01*
X69335Y-32978D01*
X69321Y-33021D01*
X69321Y-33050D01*
X69335Y-33092D01*
X69350Y-33107D01*
X69321Y-33378D02*
X69321Y-33235D01*
X69464Y-33221D01*
X69450Y-33235D01*
X69435Y-33264D01*
X69435Y-33335D01*
X69450Y-33364D01*
X69464Y-33378D01*
X69492Y-33392D01*
X69564Y-33392D01*
X69592Y-33378D01*
X69607Y-33364D01*
X69621Y-33335D01*
X69621Y-33264D01*
X69607Y-33235D01*
X69592Y-33221D01*
X69621Y-33535D02*
X69621Y-33592D01*
X69607Y-33621D01*
X69592Y-33635D01*
X69550Y-33664D01*
X69492Y-33678D01*
X69378Y-33678D01*
X69350Y-33664D01*
X69335Y-33650D01*
X69321Y-33621D01*
X69321Y-33564D01*
X69335Y-33535D01*
X69350Y-33521D01*
X69378Y-33507D01*
X69450Y-33507D01*
X69478Y-33521D01*
X69492Y-33535D01*
X69507Y-33564D01*
X69507Y-33621D01*
X69492Y-33650D01*
X69478Y-33664D01*
X69450Y-33678D01*
X69321Y-33950D02*
X69321Y-33807D01*
X69464Y-33792D01*
X69450Y-33807D01*
X69435Y-33835D01*
X69435Y-33907D01*
X69450Y-33935D01*
X69464Y-33950D01*
X69492Y-33964D01*
X69564Y-33964D01*
X69592Y-33950D01*
X69607Y-33935D01*
X69621Y-33907D01*
X69621Y-33835D01*
X69607Y-33807D01*
X69592Y-33792D01*
X74292Y-35521D02*
X74292Y-35221D01*
X73978Y-35492D02*
X73992Y-35507D01*
X74035Y-35521D01*
X74064Y-35521D01*
X74107Y-35507D01*
X74135Y-35478D01*
X74149Y-35450D01*
X74164Y-35392D01*
X74164Y-35350D01*
X74149Y-35292D01*
X74135Y-35264D01*
X74107Y-35235D01*
X74064Y-35221D01*
X74035Y-35221D01*
X73992Y-35235D01*
X73978Y-35250D01*
X73878Y-35221D02*
X73678Y-35221D01*
X73807Y-35521D01*
X73821Y-29935D02*
X74064Y-29935D01*
X74092Y-29950D01*
X74107Y-29964D01*
X74121Y-29992D01*
X74121Y-30050D01*
X74107Y-30078D01*
X74092Y-30092D01*
X74064Y-30107D01*
X73821Y-30107D01*
X74121Y-30392D02*
X74121Y-30250D01*
X73821Y-30250D01*
X74121Y-30492D02*
X73821Y-30492D01*
X74121Y-30664D01*
X73821Y-30664D01*
X73850Y-30792D02*
X73835Y-30807D01*
X73821Y-30835D01*
X73821Y-30907D01*
X73835Y-30935D01*
X73850Y-30950D01*
X73878Y-30964D01*
X73907Y-30964D01*
X73950Y-30950D01*
X74121Y-30778D01*
X74121Y-30964D01*
X73821Y-31150D02*
X73821Y-31178D01*
X73835Y-31207D01*
X73850Y-31221D01*
X73878Y-31235D01*
X73935Y-31250D01*
X74007Y-31250D01*
X74064Y-31235D01*
X74092Y-31221D01*
X74107Y-31207D01*
X74121Y-31178D01*
X74121Y-31150D01*
X74107Y-31121D01*
X74092Y-31107D01*
X74064Y-31092D01*
X74007Y-31078D01*
X73935Y-31078D01*
X73878Y-31092D01*
X73850Y-31107D01*
X73835Y-31121D01*
X73821Y-31150D01*
X73821Y-31435D02*
X73821Y-31464D01*
X73835Y-31492D01*
X73850Y-31507D01*
X73878Y-31521D01*
X73935Y-31535D01*
X74007Y-31535D01*
X74064Y-31521D01*
X74092Y-31507D01*
X74107Y-31492D01*
X74121Y-31464D01*
X74121Y-31435D01*
X74107Y-31407D01*
X74092Y-31392D01*
X74064Y-31378D01*
X74007Y-31364D01*
X73935Y-31364D01*
X73878Y-31378D01*
X73850Y-31392D01*
X73835Y-31407D01*
X73821Y-31435D01*
X73821Y-31635D02*
X73821Y-31821D01*
X73935Y-31721D01*
X73935Y-31764D01*
X73950Y-31792D01*
X73964Y-31807D01*
X73992Y-31821D01*
X74064Y-31821D01*
X74092Y-31807D01*
X74107Y-31792D01*
X74121Y-31764D01*
X74121Y-31678D01*
X74107Y-31650D01*
X74092Y-31635D01*
X74035Y-31935D02*
X74035Y-32078D01*
X74121Y-31907D02*
X73821Y-32007D01*
X74121Y-32107D01*
X58792Y-35521D02*
X58792Y-35221D01*
X58478Y-35492D02*
X58492Y-35507D01*
X58535Y-35521D01*
X58564Y-35521D01*
X58607Y-35507D01*
X58635Y-35478D01*
X58649Y-35450D01*
X58664Y-35392D01*
X58664Y-35350D01*
X58649Y-35292D01*
X58635Y-35264D01*
X58607Y-35235D01*
X58564Y-35221D01*
X58535Y-35221D01*
X58492Y-35235D01*
X58478Y-35250D01*
X58221Y-35221D02*
X58278Y-35221D01*
X58307Y-35235D01*
X58321Y-35250D01*
X58349Y-35292D01*
X58364Y-35350D01*
X58364Y-35464D01*
X58349Y-35492D01*
X58335Y-35507D01*
X58307Y-35521D01*
X58249Y-35521D01*
X58221Y-35507D01*
X58207Y-35492D01*
X58192Y-35464D01*
X58192Y-35392D01*
X58207Y-35364D01*
X58221Y-35350D01*
X58249Y-35335D01*
X58307Y-35335D01*
X58335Y-35350D01*
X58349Y-35364D01*
X58364Y-35392D01*
X58321Y-29935D02*
X58564Y-29935D01*
X58592Y-29950D01*
X58607Y-29964D01*
X58621Y-29992D01*
X58621Y-30050D01*
X58607Y-30078D01*
X58592Y-30092D01*
X58564Y-30107D01*
X58321Y-30107D01*
X58621Y-30392D02*
X58621Y-30250D01*
X58321Y-30250D01*
X58621Y-30492D02*
X58321Y-30492D01*
X58621Y-30664D01*
X58321Y-30664D01*
X58350Y-30792D02*
X58335Y-30807D01*
X58321Y-30835D01*
X58321Y-30907D01*
X58335Y-30935D01*
X58350Y-30950D01*
X58378Y-30964D01*
X58407Y-30964D01*
X58450Y-30950D01*
X58621Y-30778D01*
X58621Y-30964D01*
X58321Y-31150D02*
X58321Y-31178D01*
X58335Y-31207D01*
X58350Y-31221D01*
X58378Y-31235D01*
X58435Y-31250D01*
X58507Y-31250D01*
X58564Y-31235D01*
X58592Y-31221D01*
X58607Y-31207D01*
X58621Y-31178D01*
X58621Y-31150D01*
X58607Y-31121D01*
X58592Y-31107D01*
X58564Y-31092D01*
X58507Y-31078D01*
X58435Y-31078D01*
X58378Y-31092D01*
X58350Y-31107D01*
X58335Y-31121D01*
X58321Y-31150D01*
X58321Y-31435D02*
X58321Y-31464D01*
X58335Y-31492D01*
X58350Y-31507D01*
X58378Y-31521D01*
X58435Y-31535D01*
X58507Y-31535D01*
X58564Y-31521D01*
X58592Y-31507D01*
X58607Y-31492D01*
X58621Y-31464D01*
X58621Y-31435D01*
X58607Y-31407D01*
X58592Y-31392D01*
X58564Y-31378D01*
X58507Y-31364D01*
X58435Y-31364D01*
X58378Y-31378D01*
X58350Y-31392D01*
X58335Y-31407D01*
X58321Y-31435D01*
X58321Y-31635D02*
X58321Y-31821D01*
X58435Y-31721D01*
X58435Y-31764D01*
X58450Y-31792D01*
X58464Y-31807D01*
X58492Y-31821D01*
X58564Y-31821D01*
X58592Y-31807D01*
X58607Y-31792D01*
X58621Y-31764D01*
X58621Y-31678D01*
X58607Y-31650D01*
X58592Y-31635D01*
X58535Y-31935D02*
X58535Y-32078D01*
X58621Y-31907D02*
X58321Y-32007D01*
X58621Y-32107D01*
X54292Y-28721D02*
X54292Y-28421D01*
X53978Y-28692D02*
X53992Y-28707D01*
X54035Y-28721D01*
X54064Y-28721D01*
X54107Y-28707D01*
X54135Y-28678D01*
X54149Y-28650D01*
X54164Y-28592D01*
X54164Y-28550D01*
X54149Y-28492D01*
X54135Y-28464D01*
X54107Y-28435D01*
X54064Y-28421D01*
X54035Y-28421D01*
X53992Y-28435D01*
X53978Y-28450D01*
X53878Y-28421D02*
X53692Y-28421D01*
X53792Y-28535D01*
X53749Y-28535D01*
X53721Y-28550D01*
X53707Y-28564D01*
X53692Y-28592D01*
X53692Y-28664D01*
X53707Y-28692D01*
X53721Y-28707D01*
X53749Y-28721D01*
X53835Y-28721D01*
X53864Y-28707D01*
X53878Y-28692D01*
X53821Y-32021D02*
X53821Y-32221D01*
X54121Y-32092D01*
X53921Y-32464D02*
X54121Y-32464D01*
X53807Y-32392D02*
X54021Y-32321D01*
X54021Y-32507D01*
X54121Y-32621D02*
X53821Y-32621D01*
X53964Y-32621D02*
X53964Y-32792D01*
X54121Y-32792D02*
X53821Y-32792D01*
X54092Y-33107D02*
X54107Y-33092D01*
X54121Y-33050D01*
X54121Y-33021D01*
X54107Y-32978D01*
X54078Y-32950D01*
X54050Y-32935D01*
X53992Y-32921D01*
X53950Y-32921D01*
X53892Y-32935D01*
X53864Y-32950D01*
X53835Y-32978D01*
X53821Y-33021D01*
X53821Y-33050D01*
X53835Y-33092D01*
X53850Y-33107D01*
X53821Y-33378D02*
X53821Y-33235D01*
X53964Y-33221D01*
X53950Y-33235D01*
X53935Y-33264D01*
X53935Y-33335D01*
X53950Y-33364D01*
X53964Y-33378D01*
X53992Y-33392D01*
X54064Y-33392D01*
X54092Y-33378D01*
X54107Y-33364D01*
X54121Y-33335D01*
X54121Y-33264D01*
X54107Y-33235D01*
X54092Y-33221D01*
X54121Y-33535D02*
X54121Y-33592D01*
X54107Y-33621D01*
X54092Y-33635D01*
X54050Y-33664D01*
X53992Y-33678D01*
X53878Y-33678D01*
X53850Y-33664D01*
X53835Y-33650D01*
X53821Y-33621D01*
X53821Y-33564D01*
X53835Y-33535D01*
X53850Y-33521D01*
X53878Y-33507D01*
X53950Y-33507D01*
X53978Y-33521D01*
X53992Y-33535D01*
X54007Y-33564D01*
X54007Y-33621D01*
X53992Y-33650D01*
X53978Y-33664D01*
X53950Y-33678D01*
X53821Y-33950D02*
X53821Y-33807D01*
X53964Y-33792D01*
X53950Y-33807D01*
X53935Y-33835D01*
X53935Y-33907D01*
X53950Y-33935D01*
X53964Y-33950D01*
X53992Y-33964D01*
X54064Y-33964D01*
X54092Y-33950D01*
X54107Y-33935D01*
X54121Y-33907D01*
X54121Y-33835D01*
X54107Y-33807D01*
X54092Y-33792D01*
X38792Y-28721D02*
X38792Y-28421D01*
X38478Y-28692D02*
X38492Y-28707D01*
X38535Y-28721D01*
X38564Y-28721D01*
X38607Y-28707D01*
X38635Y-28678D01*
X38649Y-28650D01*
X38664Y-28592D01*
X38664Y-28550D01*
X38649Y-28492D01*
X38635Y-28464D01*
X38607Y-28435D01*
X38564Y-28421D01*
X38535Y-28421D01*
X38492Y-28435D01*
X38478Y-28450D01*
X38364Y-28450D02*
X38349Y-28435D01*
X38321Y-28421D01*
X38249Y-28421D01*
X38221Y-28435D01*
X38207Y-28450D01*
X38192Y-28478D01*
X38192Y-28507D01*
X38207Y-28550D01*
X38378Y-28721D01*
X38192Y-28721D01*
X38321Y-32021D02*
X38321Y-32221D01*
X38621Y-32092D01*
X38421Y-32464D02*
X38621Y-32464D01*
X38307Y-32392D02*
X38521Y-32321D01*
X38521Y-32507D01*
X38621Y-32621D02*
X38321Y-32621D01*
X38464Y-32621D02*
X38464Y-32792D01*
X38621Y-32792D02*
X38321Y-32792D01*
X38592Y-33107D02*
X38607Y-33092D01*
X38621Y-33050D01*
X38621Y-33021D01*
X38607Y-32978D01*
X38578Y-32950D01*
X38550Y-32935D01*
X38492Y-32921D01*
X38450Y-32921D01*
X38392Y-32935D01*
X38364Y-32950D01*
X38335Y-32978D01*
X38321Y-33021D01*
X38321Y-33050D01*
X38335Y-33092D01*
X38350Y-33107D01*
X38321Y-33378D02*
X38321Y-33235D01*
X38464Y-33221D01*
X38450Y-33235D01*
X38435Y-33264D01*
X38435Y-33335D01*
X38450Y-33364D01*
X38464Y-33378D01*
X38492Y-33392D01*
X38564Y-33392D01*
X38592Y-33378D01*
X38607Y-33364D01*
X38621Y-33335D01*
X38621Y-33264D01*
X38607Y-33235D01*
X38592Y-33221D01*
X38621Y-33535D02*
X38621Y-33592D01*
X38607Y-33621D01*
X38592Y-33635D01*
X38550Y-33664D01*
X38492Y-33678D01*
X38378Y-33678D01*
X38350Y-33664D01*
X38335Y-33650D01*
X38321Y-33621D01*
X38321Y-33564D01*
X38335Y-33535D01*
X38350Y-33521D01*
X38378Y-33507D01*
X38450Y-33507D01*
X38478Y-33521D01*
X38492Y-33535D01*
X38507Y-33564D01*
X38507Y-33621D01*
X38492Y-33650D01*
X38478Y-33664D01*
X38450Y-33678D01*
X38321Y-33950D02*
X38321Y-33807D01*
X38464Y-33792D01*
X38450Y-33807D01*
X38435Y-33835D01*
X38435Y-33907D01*
X38450Y-33935D01*
X38464Y-33950D01*
X38492Y-33964D01*
X38564Y-33964D01*
X38592Y-33950D01*
X38607Y-33935D01*
X38621Y-33907D01*
X38621Y-33835D01*
X38607Y-33807D01*
X38592Y-33792D01*
X43292Y-35521D02*
X43292Y-35221D01*
X42978Y-35492D02*
X42992Y-35507D01*
X43035Y-35521D01*
X43064Y-35521D01*
X43107Y-35507D01*
X43135Y-35478D01*
X43149Y-35450D01*
X43164Y-35392D01*
X43164Y-35350D01*
X43149Y-35292D01*
X43135Y-35264D01*
X43107Y-35235D01*
X43064Y-35221D01*
X43035Y-35221D01*
X42992Y-35235D01*
X42978Y-35250D01*
X42707Y-35221D02*
X42849Y-35221D01*
X42864Y-35364D01*
X42849Y-35350D01*
X42821Y-35335D01*
X42749Y-35335D01*
X42721Y-35350D01*
X42707Y-35364D01*
X42692Y-35392D01*
X42692Y-35464D01*
X42707Y-35492D01*
X42721Y-35507D01*
X42749Y-35521D01*
X42821Y-35521D01*
X42849Y-35507D01*
X42864Y-35492D01*
X42821Y-29935D02*
X43064Y-29935D01*
X43092Y-29950D01*
X43107Y-29964D01*
X43121Y-29992D01*
X43121Y-30050D01*
X43107Y-30078D01*
X43092Y-30092D01*
X43064Y-30107D01*
X42821Y-30107D01*
X43121Y-30392D02*
X43121Y-30250D01*
X42821Y-30250D01*
X43121Y-30492D02*
X42821Y-30492D01*
X43121Y-30664D01*
X42821Y-30664D01*
X42850Y-30792D02*
X42835Y-30807D01*
X42821Y-30835D01*
X42821Y-30907D01*
X42835Y-30935D01*
X42850Y-30950D01*
X42878Y-30964D01*
X42907Y-30964D01*
X42950Y-30950D01*
X43121Y-30778D01*
X43121Y-30964D01*
X42821Y-31150D02*
X42821Y-31178D01*
X42835Y-31207D01*
X42850Y-31221D01*
X42878Y-31235D01*
X42935Y-31250D01*
X43007Y-31250D01*
X43064Y-31235D01*
X43092Y-31221D01*
X43107Y-31207D01*
X43121Y-31178D01*
X43121Y-31150D01*
X43107Y-31121D01*
X43092Y-31107D01*
X43064Y-31092D01*
X43007Y-31078D01*
X42935Y-31078D01*
X42878Y-31092D01*
X42850Y-31107D01*
X42835Y-31121D01*
X42821Y-31150D01*
X42821Y-31435D02*
X42821Y-31464D01*
X42835Y-31492D01*
X42850Y-31507D01*
X42878Y-31521D01*
X42935Y-31535D01*
X43007Y-31535D01*
X43064Y-31521D01*
X43092Y-31507D01*
X43107Y-31492D01*
X43121Y-31464D01*
X43121Y-31435D01*
X43107Y-31407D01*
X43092Y-31392D01*
X43064Y-31378D01*
X43007Y-31364D01*
X42935Y-31364D01*
X42878Y-31378D01*
X42850Y-31392D01*
X42835Y-31407D01*
X42821Y-31435D01*
X42821Y-31635D02*
X42821Y-31821D01*
X42935Y-31721D01*
X42935Y-31764D01*
X42950Y-31792D01*
X42964Y-31807D01*
X42992Y-31821D01*
X43064Y-31821D01*
X43092Y-31807D01*
X43107Y-31792D01*
X43121Y-31764D01*
X43121Y-31678D01*
X43107Y-31650D01*
X43092Y-31635D01*
X43035Y-31935D02*
X43035Y-32078D01*
X43121Y-31907D02*
X42821Y-32007D01*
X43121Y-32107D01*
G54D11*
X34390Y-18161D02*
X34390Y-17761D01*
X33971Y-18123D02*
X33990Y-18142D01*
X34047Y-18161D01*
X34085Y-18161D01*
X34142Y-18142D01*
X34180Y-18104D01*
X34199Y-18066D01*
X34219Y-17990D01*
X34219Y-17933D01*
X34199Y-17857D01*
X34180Y-17819D01*
X34142Y-17780D01*
X34085Y-17761D01*
X34047Y-17761D01*
X33990Y-17780D01*
X33971Y-17800D01*
X33590Y-18161D02*
X33819Y-18161D01*
X33704Y-18161D02*
X33704Y-17761D01*
X33742Y-17819D01*
X33780Y-17857D01*
X33819Y-17876D01*
X32600Y-32161D02*
X32600Y-31761D01*
X32447Y-31761D01*
X32409Y-31780D01*
X32390Y-31800D01*
X32371Y-31838D01*
X32371Y-31895D01*
X32390Y-31933D01*
X32409Y-31952D01*
X32447Y-31971D01*
X32600Y-31971D01*
X31971Y-32161D02*
X32104Y-31971D01*
X32200Y-32161D02*
X32200Y-31761D01*
X32047Y-31761D01*
X32009Y-31780D01*
X31990Y-31800D01*
X31971Y-31838D01*
X31971Y-31895D01*
X31990Y-31933D01*
X32009Y-31952D01*
X32047Y-31971D01*
X32200Y-31971D01*
X31723Y-31761D02*
X31647Y-31761D01*
X31609Y-31780D01*
X31571Y-31819D01*
X31552Y-31895D01*
X31552Y-32028D01*
X31571Y-32104D01*
X31609Y-32142D01*
X31647Y-32161D01*
X31723Y-32161D01*
X31761Y-32142D01*
X31800Y-32104D01*
X31819Y-32028D01*
X31819Y-31895D01*
X31800Y-31819D01*
X31761Y-31780D01*
X31723Y-31761D01*
X31476Y-32200D02*
X31171Y-32200D01*
X31076Y-32161D02*
X31076Y-31761D01*
X30942Y-32047D01*
X30809Y-31761D01*
X30809Y-32161D01*
X30619Y-32161D02*
X30619Y-31761D01*
X30200Y-32123D02*
X30219Y-32142D01*
X30276Y-32161D01*
X30314Y-32161D01*
X30371Y-32142D01*
X30409Y-32104D01*
X30428Y-32066D01*
X30447Y-31990D01*
X30447Y-31933D01*
X30428Y-31857D01*
X30409Y-31819D01*
X30371Y-31780D01*
X30314Y-31761D01*
X30276Y-31761D01*
X30219Y-31780D01*
X30200Y-31800D01*
X29800Y-32161D02*
X29933Y-31971D01*
X30028Y-32161D02*
X30028Y-31761D01*
X29876Y-31761D01*
X29838Y-31780D01*
X29819Y-31800D01*
X29800Y-31838D01*
X29800Y-31895D01*
X29819Y-31933D01*
X29838Y-31952D01*
X29876Y-31971D01*
X30028Y-31971D01*
X29552Y-31761D02*
X29476Y-31761D01*
X29438Y-31780D01*
X29400Y-31819D01*
X29380Y-31895D01*
X29380Y-32028D01*
X29400Y-32104D01*
X29438Y-32142D01*
X29476Y-32161D01*
X29552Y-32161D01*
X29590Y-32142D01*
X29628Y-32104D01*
X29647Y-32028D01*
X29647Y-31895D01*
X29628Y-31819D01*
X29590Y-31780D01*
X29552Y-31761D01*
G54D13*
X32714Y-31035D02*
X32571Y-31035D01*
X32742Y-31121D02*
X32642Y-30821D01*
X32542Y-31121D01*
X32428Y-31121D02*
X32371Y-31121D01*
X32342Y-31107D01*
X32328Y-31092D01*
X32299Y-31050D01*
X32285Y-30992D01*
X32285Y-30878D01*
X32299Y-30850D01*
X32314Y-30835D01*
X32342Y-30821D01*
X32399Y-30821D01*
X32428Y-30835D01*
X32442Y-30850D01*
X32457Y-30878D01*
X32457Y-30950D01*
X32442Y-30978D01*
X32428Y-30992D01*
X32399Y-31007D01*
X32342Y-31007D01*
X32314Y-30992D01*
X32299Y-30978D01*
X32285Y-30950D01*
X29728Y-20835D02*
X29757Y-20821D01*
X29800Y-20821D01*
X29842Y-20835D01*
X29871Y-20864D01*
X29885Y-20892D01*
X29900Y-20950D01*
X29900Y-20992D01*
X29885Y-21050D01*
X29871Y-21078D01*
X29842Y-21107D01*
X29800Y-21121D01*
X29771Y-21121D01*
X29728Y-21107D01*
X29714Y-21092D01*
X29714Y-20992D01*
X29771Y-20992D01*
X29585Y-21121D02*
X29585Y-20821D01*
X29414Y-21121D01*
X29414Y-20821D01*
X29271Y-21121D02*
X29271Y-20821D01*
X29200Y-20821D01*
X29157Y-20835D01*
X29128Y-20864D01*
X29114Y-20892D01*
X29100Y-20950D01*
X29100Y-20992D01*
X29114Y-21050D01*
X29128Y-21078D01*
X29157Y-21107D01*
X29200Y-21121D01*
X29271Y-21121D01*
X29857Y-31035D02*
X29714Y-31035D01*
X29885Y-31121D02*
X29785Y-30821D01*
X29685Y-31121D01*
X29428Y-31121D02*
X29599Y-31121D01*
X29514Y-31121D02*
X29514Y-30821D01*
X29542Y-30864D01*
X29571Y-30892D01*
X29599Y-30907D01*
X29242Y-30821D02*
X29214Y-30821D01*
X29185Y-30835D01*
X29171Y-30850D01*
X29157Y-30878D01*
X29142Y-30935D01*
X29142Y-31007D01*
X29157Y-31064D01*
X29171Y-31092D01*
X29185Y-31107D01*
X29214Y-31121D01*
X29242Y-31121D01*
X29271Y-31107D01*
X29285Y-31092D01*
X29299Y-31064D01*
X29314Y-31007D01*
X29314Y-30935D01*
X29299Y-30878D01*
X29285Y-30850D01*
X29271Y-30835D01*
X29242Y-30821D01*
X32621Y-21121D02*
X32721Y-20978D01*
X32792Y-21121D02*
X32792Y-20821D01*
X32678Y-20821D01*
X32649Y-20835D01*
X32635Y-20850D01*
X32621Y-20878D01*
X32621Y-20921D01*
X32635Y-20950D01*
X32649Y-20964D01*
X32678Y-20978D01*
X32792Y-20978D01*
X32521Y-20821D02*
X32321Y-21121D01*
X32321Y-20821D02*
X32521Y-21121D01*
X32207Y-21121D02*
X32207Y-20821D01*
G54D14*
X53227Y-28008D02*
X53239Y-27996D01*
X53251Y-27960D01*
X53251Y-27936D01*
X53239Y-27901D01*
X53215Y-27877D01*
X53191Y-27865D01*
X53144Y-27853D01*
X53108Y-27853D01*
X53060Y-27865D01*
X53036Y-27877D01*
X53013Y-27901D01*
X53001Y-27936D01*
X53001Y-27960D01*
X53013Y-27996D01*
X53025Y-28008D01*
X53084Y-28222D02*
X53251Y-28222D01*
X52989Y-28163D02*
X53167Y-28103D01*
X53167Y-28258D01*
X51601Y-27489D02*
X51601Y-27513D01*
X51613Y-27536D01*
X51625Y-27548D01*
X51648Y-27560D01*
X51696Y-27572D01*
X51755Y-27572D01*
X51803Y-27560D01*
X51827Y-27548D01*
X51839Y-27536D01*
X51851Y-27513D01*
X51851Y-27489D01*
X51839Y-27465D01*
X51827Y-27453D01*
X51803Y-27441D01*
X51755Y-27429D01*
X51696Y-27429D01*
X51648Y-27441D01*
X51625Y-27453D01*
X51613Y-27465D01*
X51601Y-27489D01*
X51827Y-27679D02*
X51839Y-27691D01*
X51851Y-27679D01*
X51839Y-27667D01*
X51827Y-27679D01*
X51851Y-27679D01*
X51851Y-27929D02*
X51851Y-27786D01*
X51851Y-27858D02*
X51601Y-27858D01*
X51636Y-27834D01*
X51660Y-27810D01*
X51672Y-27786D01*
X51684Y-28144D02*
X51851Y-28144D01*
X51684Y-28036D02*
X51815Y-28036D01*
X51839Y-28048D01*
X51851Y-28072D01*
X51851Y-28108D01*
X51839Y-28132D01*
X51827Y-28144D01*
X51720Y-28346D02*
X51720Y-28263D01*
X51851Y-28263D02*
X51601Y-28263D01*
X51601Y-28382D01*
X68727Y-28008D02*
X68739Y-27996D01*
X68751Y-27960D01*
X68751Y-27936D01*
X68739Y-27901D01*
X68715Y-27877D01*
X68691Y-27865D01*
X68644Y-27853D01*
X68608Y-27853D01*
X68560Y-27865D01*
X68536Y-27877D01*
X68513Y-27901D01*
X68501Y-27936D01*
X68501Y-27960D01*
X68513Y-27996D01*
X68525Y-28008D01*
X68501Y-28234D02*
X68501Y-28115D01*
X68620Y-28103D01*
X68608Y-28115D01*
X68596Y-28139D01*
X68596Y-28198D01*
X68608Y-28222D01*
X68620Y-28234D01*
X68644Y-28246D01*
X68703Y-28246D01*
X68727Y-28234D01*
X68739Y-28222D01*
X68751Y-28198D01*
X68751Y-28139D01*
X68739Y-28115D01*
X68727Y-28103D01*
X67101Y-27489D02*
X67101Y-27513D01*
X67113Y-27536D01*
X67125Y-27548D01*
X67148Y-27560D01*
X67196Y-27572D01*
X67255Y-27572D01*
X67303Y-27560D01*
X67327Y-27548D01*
X67339Y-27536D01*
X67351Y-27513D01*
X67351Y-27489D01*
X67339Y-27465D01*
X67327Y-27453D01*
X67303Y-27441D01*
X67255Y-27429D01*
X67196Y-27429D01*
X67148Y-27441D01*
X67125Y-27453D01*
X67113Y-27465D01*
X67101Y-27489D01*
X67327Y-27679D02*
X67339Y-27691D01*
X67351Y-27679D01*
X67339Y-27667D01*
X67327Y-27679D01*
X67351Y-27679D01*
X67351Y-27929D02*
X67351Y-27786D01*
X67351Y-27858D02*
X67101Y-27858D01*
X67136Y-27834D01*
X67160Y-27810D01*
X67172Y-27786D01*
X67184Y-28144D02*
X67351Y-28144D01*
X67184Y-28036D02*
X67315Y-28036D01*
X67339Y-28048D01*
X67351Y-28072D01*
X67351Y-28108D01*
X67339Y-28132D01*
X67327Y-28144D01*
X67220Y-28346D02*
X67220Y-28263D01*
X67351Y-28263D02*
X67101Y-28263D01*
X67101Y-28382D01*
X37727Y-28008D02*
X37739Y-27996D01*
X37751Y-27960D01*
X37751Y-27936D01*
X37739Y-27901D01*
X37715Y-27877D01*
X37691Y-27865D01*
X37644Y-27853D01*
X37608Y-27853D01*
X37560Y-27865D01*
X37536Y-27877D01*
X37513Y-27901D01*
X37501Y-27936D01*
X37501Y-27960D01*
X37513Y-27996D01*
X37525Y-28008D01*
X37501Y-28091D02*
X37501Y-28246D01*
X37596Y-28163D01*
X37596Y-28198D01*
X37608Y-28222D01*
X37620Y-28234D01*
X37644Y-28246D01*
X37703Y-28246D01*
X37727Y-28234D01*
X37739Y-28222D01*
X37751Y-28198D01*
X37751Y-28127D01*
X37739Y-28103D01*
X37727Y-28091D01*
X36101Y-27489D02*
X36101Y-27513D01*
X36113Y-27536D01*
X36125Y-27548D01*
X36148Y-27560D01*
X36196Y-27572D01*
X36255Y-27572D01*
X36303Y-27560D01*
X36327Y-27548D01*
X36339Y-27536D01*
X36351Y-27513D01*
X36351Y-27489D01*
X36339Y-27465D01*
X36327Y-27453D01*
X36303Y-27441D01*
X36255Y-27429D01*
X36196Y-27429D01*
X36148Y-27441D01*
X36125Y-27453D01*
X36113Y-27465D01*
X36101Y-27489D01*
X36327Y-27679D02*
X36339Y-27691D01*
X36351Y-27679D01*
X36339Y-27667D01*
X36327Y-27679D01*
X36351Y-27679D01*
X36351Y-27929D02*
X36351Y-27786D01*
X36351Y-27858D02*
X36101Y-27858D01*
X36136Y-27834D01*
X36160Y-27810D01*
X36172Y-27786D01*
X36184Y-28144D02*
X36351Y-28144D01*
X36184Y-28036D02*
X36315Y-28036D01*
X36339Y-28048D01*
X36351Y-28072D01*
X36351Y-28108D01*
X36339Y-28132D01*
X36327Y-28144D01*
X36220Y-28346D02*
X36220Y-28263D01*
X36351Y-28263D02*
X36101Y-28263D01*
X36101Y-28382D01*
M02*
