G04 (created by PCBNEW (2013-07-07 BZR 4022)-stable) date Fri 01 Jul 2022 09:03:58 PM CDT*
%MOIN*%
G04 Gerber Fmt 3.4, Leading zero omitted, Abs format*
%FSLAX34Y34*%
G01*
G70*
G90*
G04 APERTURE LIST*
%ADD10C,0.00590551*%
%ADD11R,0.059X0.0885*%
%ADD12O,0.059X0.0885*%
%ADD13R,0.069X0.069*%
%ADD14C,0.069*%
%ADD15O,0.059X0.059*%
%ADD16R,0.0885X0.059*%
%ADD17O,0.0885X0.059*%
%ADD18R,0.064X0.059*%
%ADD19R,0.059X0.064*%
%ADD20C,0.035*%
%ADD21C,0.02*%
%ADD22C,0.01*%
%ADD23C,0.04*%
G04 APERTURE END LIST*
G54D10*
G54D11*
X72000Y-42352D03*
G54D12*
X73000Y-42352D03*
X74000Y-42352D03*
X75000Y-42352D03*
X76000Y-42352D03*
X76000Y-23647D03*
X75000Y-23647D03*
X74000Y-23647D03*
X73000Y-23647D03*
X72000Y-23647D03*
G54D13*
X34000Y-33500D03*
G54D14*
X34000Y-34500D03*
X34000Y-35500D03*
G54D13*
X34000Y-41000D03*
G54D14*
X34000Y-42000D03*
G54D15*
X55000Y-27500D03*
X55000Y-23500D03*
X69500Y-38500D03*
X69500Y-42500D03*
X70500Y-27500D03*
X70500Y-23500D03*
X78500Y-27500D03*
X78500Y-23500D03*
X68500Y-38500D03*
X68500Y-42500D03*
X70500Y-38500D03*
X70500Y-42500D03*
X69500Y-27500D03*
X69500Y-23500D03*
X77500Y-27500D03*
X77500Y-23500D03*
X79500Y-27500D03*
X79500Y-23500D03*
X54000Y-27500D03*
X54000Y-23500D03*
X54000Y-38500D03*
X54000Y-42500D03*
X62000Y-27500D03*
X62000Y-23500D03*
X53000Y-38500D03*
X53000Y-42500D03*
X55000Y-38500D03*
X55000Y-42500D03*
X48500Y-27500D03*
X48500Y-23500D03*
X47500Y-27500D03*
X47500Y-23500D03*
X39500Y-38500D03*
X39500Y-42500D03*
X37500Y-38500D03*
X37500Y-42500D03*
X39500Y-27500D03*
X39500Y-23500D03*
X46500Y-27500D03*
X46500Y-23500D03*
X38500Y-38500D03*
X38500Y-42500D03*
X38500Y-27500D03*
X38500Y-23500D03*
X64000Y-27500D03*
X64000Y-23500D03*
X63000Y-27500D03*
X63000Y-23500D03*
G54D16*
X70852Y-29500D03*
G54D17*
X70852Y-30500D03*
X70852Y-31500D03*
X70852Y-32500D03*
X68147Y-34500D03*
X68147Y-33500D03*
X68147Y-32500D03*
X68147Y-31500D03*
X70852Y-33500D03*
X70852Y-34500D03*
X70852Y-35500D03*
X68147Y-35500D03*
X68147Y-36500D03*
X68147Y-30500D03*
X70852Y-36500D03*
X68147Y-29500D03*
G54D16*
X72647Y-34500D03*
G54D17*
X72647Y-33500D03*
X72647Y-32500D03*
X72647Y-31500D03*
X75352Y-29500D03*
X75352Y-30500D03*
X75352Y-31500D03*
X75352Y-32500D03*
X72647Y-30500D03*
X72647Y-29500D03*
X72647Y-28500D03*
X75352Y-28500D03*
X75352Y-27500D03*
X75352Y-33500D03*
X72647Y-27500D03*
X75352Y-34500D03*
G54D16*
X57147Y-34500D03*
G54D17*
X57147Y-33500D03*
X57147Y-32500D03*
X57147Y-31500D03*
X59852Y-29500D03*
X59852Y-30500D03*
X59852Y-31500D03*
X59852Y-32500D03*
X57147Y-30500D03*
X57147Y-29500D03*
X57147Y-28500D03*
X59852Y-28500D03*
X59852Y-27500D03*
X59852Y-33500D03*
X57147Y-27500D03*
X59852Y-34500D03*
G54D16*
X55352Y-29500D03*
G54D17*
X55352Y-30500D03*
X55352Y-31500D03*
X55352Y-32500D03*
X52647Y-34500D03*
X52647Y-33500D03*
X52647Y-32500D03*
X52647Y-31500D03*
X55352Y-33500D03*
X55352Y-34500D03*
X55352Y-35500D03*
X52647Y-35500D03*
X52647Y-36500D03*
X52647Y-30500D03*
X55352Y-36500D03*
X52647Y-29500D03*
G54D16*
X39852Y-29500D03*
G54D17*
X39852Y-30500D03*
X39852Y-31500D03*
X39852Y-32500D03*
X37147Y-34500D03*
X37147Y-33500D03*
X37147Y-32500D03*
X37147Y-31500D03*
X39852Y-33500D03*
X39852Y-34500D03*
X39852Y-35500D03*
X37147Y-35500D03*
X37147Y-36500D03*
X37147Y-30500D03*
X39852Y-36500D03*
X37147Y-29500D03*
G54D16*
X41647Y-34500D03*
G54D17*
X41647Y-33500D03*
X41647Y-32500D03*
X41647Y-31500D03*
X44352Y-29500D03*
X44352Y-30500D03*
X44352Y-31500D03*
X44352Y-32500D03*
X41647Y-30500D03*
X41647Y-29500D03*
X41647Y-28500D03*
X44352Y-28500D03*
X44352Y-27500D03*
X44352Y-33500D03*
X41647Y-27500D03*
X44352Y-34500D03*
G54D16*
X33852Y-20000D03*
G54D17*
X33852Y-21000D03*
X33852Y-22000D03*
X33852Y-23000D03*
X33852Y-24000D03*
X33852Y-25000D03*
X33852Y-26000D03*
X28147Y-20000D03*
X28147Y-21000D03*
X28147Y-22000D03*
X33852Y-27000D03*
X33852Y-28000D03*
X33852Y-29000D03*
X33852Y-30000D03*
X33852Y-31000D03*
X28147Y-23000D03*
X28147Y-24000D03*
X28147Y-25000D03*
X28147Y-26000D03*
X28147Y-27000D03*
X28147Y-28000D03*
X28147Y-29000D03*
X28147Y-30000D03*
X28147Y-31000D03*
G54D11*
X41000Y-42352D03*
G54D12*
X42000Y-42352D03*
X43000Y-42352D03*
X44000Y-42352D03*
X45000Y-42352D03*
X45000Y-23647D03*
X44000Y-23647D03*
X43000Y-23647D03*
X42000Y-23647D03*
X41000Y-23647D03*
G54D11*
X56500Y-42352D03*
G54D12*
X57500Y-42352D03*
X58500Y-42352D03*
X59500Y-42352D03*
X60500Y-42352D03*
X60500Y-23647D03*
X59500Y-23647D03*
X58500Y-23647D03*
X57500Y-23647D03*
X56500Y-23647D03*
G54D15*
X30000Y-37500D03*
X34000Y-37500D03*
G54D18*
X31300Y-39000D03*
X32450Y-39000D03*
G54D19*
X52500Y-27950D03*
X52500Y-26800D03*
X68000Y-27950D03*
X68000Y-26800D03*
X37000Y-27950D03*
X37000Y-26800D03*
G54D20*
X66000Y-33500D03*
X64000Y-35500D03*
X50500Y-33500D03*
X48500Y-35500D03*
G54D21*
X37000Y-29500D02*
X36250Y-30250D01*
X36250Y-30250D02*
X36250Y-34750D01*
X36250Y-34750D02*
X37000Y-35500D01*
X52500Y-29500D02*
X51750Y-30250D01*
X51750Y-34750D02*
X52500Y-35500D01*
X51750Y-30250D02*
X51750Y-34750D01*
X68000Y-29500D02*
X67250Y-30250D01*
X67250Y-34750D02*
X68000Y-35500D01*
X67250Y-30250D02*
X67250Y-34750D01*
X68000Y-28000D02*
X68000Y-29500D01*
X52500Y-28000D02*
X52500Y-29500D01*
X37000Y-28000D02*
X37000Y-29500D01*
X45000Y-42500D02*
X44250Y-43250D01*
X44250Y-43250D02*
X41750Y-43250D01*
X41750Y-43250D02*
X41000Y-42500D01*
X60500Y-42500D02*
X59750Y-43250D01*
X57250Y-43250D02*
X56500Y-42500D01*
X59750Y-43250D02*
X57250Y-43250D01*
X76000Y-42500D02*
X75250Y-43250D01*
X72750Y-43250D02*
X72000Y-42500D01*
X75250Y-43250D02*
X72750Y-43250D01*
G54D22*
X38000Y-25500D02*
X35500Y-25500D01*
X35500Y-25500D02*
X34000Y-27000D01*
X48500Y-27500D02*
X46500Y-25500D01*
X46500Y-25500D02*
X38000Y-25500D01*
X37500Y-25000D02*
X35500Y-25000D01*
X35000Y-25000D02*
X34000Y-26000D01*
X35500Y-25000D02*
X35000Y-25000D01*
X64000Y-27500D02*
X61500Y-25000D01*
X61500Y-25000D02*
X37500Y-25000D01*
X37000Y-24500D02*
X34500Y-24500D01*
X34500Y-24500D02*
X34000Y-25000D01*
X79500Y-27500D02*
X76500Y-24500D01*
X76500Y-24500D02*
X37000Y-24500D01*
G54D23*
X34000Y-42000D02*
X34500Y-42000D01*
X36750Y-26750D02*
X37000Y-26750D01*
X35500Y-28000D02*
X36750Y-26750D01*
X35500Y-41000D02*
X35500Y-28000D01*
X34500Y-42000D02*
X35500Y-41000D01*
X31000Y-21500D02*
X31000Y-25000D01*
X32500Y-42000D02*
X34000Y-42000D01*
X29000Y-38500D02*
X32500Y-42000D01*
X29000Y-36500D02*
X29000Y-38500D01*
X31000Y-34500D02*
X29000Y-36500D01*
X31000Y-30500D02*
X31000Y-34500D01*
X31000Y-25000D02*
X31000Y-30500D01*
G54D21*
X34000Y-23000D02*
X34000Y-22000D01*
G54D23*
X28000Y-21000D02*
X30500Y-21000D01*
X31500Y-22000D02*
X34000Y-22000D01*
X30500Y-21000D02*
X31000Y-21500D01*
X31000Y-21500D02*
X31500Y-22000D01*
G54D21*
X34000Y-42000D02*
X33500Y-42000D01*
X33500Y-42000D02*
X33000Y-41500D01*
X33000Y-36500D02*
X34000Y-35500D01*
X33000Y-37500D02*
X33000Y-36500D01*
X33500Y-38000D02*
X33000Y-37500D01*
X33500Y-39500D02*
X33500Y-38000D01*
X33000Y-40000D02*
X33500Y-39500D01*
X33000Y-41500D02*
X33000Y-40000D01*
G54D22*
X32500Y-39000D02*
X32500Y-41000D01*
X32500Y-41000D02*
X33500Y-42000D01*
G54D23*
X40000Y-36500D02*
X39500Y-36500D01*
G54D21*
X38500Y-33500D02*
X37500Y-32500D01*
X38500Y-35500D02*
X38500Y-33500D01*
X39500Y-36500D02*
X38500Y-35500D01*
G54D23*
X37500Y-32500D02*
X37000Y-32500D01*
X55500Y-36500D02*
X55000Y-36500D01*
G54D21*
X54000Y-33500D02*
X53000Y-32500D01*
X54000Y-35500D02*
X54000Y-33500D01*
X55000Y-36500D02*
X54000Y-35500D01*
G54D23*
X53000Y-32500D02*
X52500Y-32500D01*
G54D21*
X71000Y-36500D02*
X70500Y-36500D01*
X69500Y-33500D02*
X68500Y-32500D01*
X69500Y-35500D02*
X69500Y-33500D01*
X70500Y-36500D02*
X69500Y-35500D01*
X68500Y-32500D02*
X68000Y-32500D01*
X68000Y-26750D02*
X68750Y-27500D01*
X68500Y-32500D02*
X68000Y-32500D01*
X69000Y-32000D02*
X68500Y-32500D01*
X69000Y-28250D02*
X69000Y-32000D01*
X68750Y-28000D02*
X69000Y-28250D01*
X68750Y-27500D02*
X68750Y-28000D01*
X52500Y-26750D02*
X53250Y-27500D01*
G54D23*
X53000Y-32500D02*
X52500Y-32500D01*
G54D21*
X53500Y-32000D02*
X53000Y-32500D01*
X53500Y-28250D02*
X53500Y-32000D01*
X53250Y-28000D02*
X53500Y-28250D01*
X53250Y-27500D02*
X53250Y-28000D01*
X37000Y-26750D02*
X37750Y-27500D01*
X37750Y-27500D02*
X37750Y-28000D01*
X37750Y-28000D02*
X38000Y-28250D01*
X38000Y-28250D02*
X38000Y-32000D01*
X38000Y-32000D02*
X37500Y-32500D01*
G54D23*
X37500Y-32500D02*
X37000Y-32500D01*
X41500Y-27500D02*
X40500Y-26500D01*
X40500Y-26500D02*
X37250Y-26500D01*
X37250Y-26500D02*
X37000Y-26750D01*
X57000Y-27500D02*
X56000Y-26500D01*
X52750Y-26500D02*
X52500Y-26750D01*
X56000Y-26500D02*
X52750Y-26500D01*
X72500Y-27500D02*
X71500Y-26500D01*
X68250Y-26500D02*
X68000Y-26750D01*
X71500Y-26500D02*
X68250Y-26500D01*
G54D22*
X71000Y-34500D02*
X72500Y-34500D01*
X64000Y-35500D02*
X66000Y-33500D01*
X48500Y-35500D02*
X50500Y-33500D01*
X75500Y-29500D02*
X75000Y-29000D01*
X71000Y-29000D02*
X69500Y-27500D01*
X75000Y-29000D02*
X71000Y-29000D01*
X75500Y-32500D02*
X75000Y-32500D01*
X71000Y-38000D02*
X70500Y-38500D01*
X72500Y-38000D02*
X71000Y-38000D01*
X74500Y-36000D02*
X72500Y-38000D01*
X74500Y-33000D02*
X74500Y-36000D01*
X75000Y-32500D02*
X74500Y-33000D01*
X73000Y-42500D02*
X73000Y-42000D01*
X71000Y-41500D02*
X70500Y-42000D01*
X72500Y-41500D02*
X71000Y-41500D01*
X73000Y-42000D02*
X72500Y-41500D01*
X70500Y-42000D02*
X70500Y-42500D01*
X70500Y-42000D02*
X70500Y-42500D01*
X68500Y-38500D02*
X70000Y-37000D01*
X74500Y-30500D02*
X75500Y-30500D01*
X73500Y-31500D02*
X74500Y-30500D01*
X73500Y-35000D02*
X73500Y-31500D01*
X71500Y-37000D02*
X73500Y-35000D01*
X70000Y-37000D02*
X71500Y-37000D01*
X75000Y-42500D02*
X75000Y-42000D01*
X70000Y-40500D02*
X68500Y-42000D01*
X73500Y-40500D02*
X70000Y-40500D01*
X75000Y-42000D02*
X73500Y-40500D01*
X68500Y-42000D02*
X68500Y-42500D01*
X68500Y-42000D02*
X68500Y-42500D01*
X75500Y-34500D02*
X78500Y-31500D01*
X78500Y-31500D02*
X78500Y-27500D01*
X75000Y-23500D02*
X76000Y-22500D01*
X77500Y-22500D02*
X78500Y-23500D01*
X77000Y-22500D02*
X77500Y-22500D01*
X76000Y-22500D02*
X77000Y-22500D01*
X75500Y-28500D02*
X75000Y-28000D01*
X71000Y-28000D02*
X70500Y-27500D01*
X75000Y-28000D02*
X71000Y-28000D01*
X75500Y-33500D02*
X77500Y-31500D01*
X77500Y-31500D02*
X77500Y-27500D01*
X70500Y-23500D02*
X72000Y-23500D01*
X69500Y-23500D02*
X70250Y-22750D01*
X72250Y-22750D02*
X73000Y-23500D01*
X71500Y-22750D02*
X72250Y-22750D01*
X70250Y-22750D02*
X71500Y-22750D01*
X77500Y-23500D02*
X76000Y-23500D01*
X71000Y-29500D02*
X72500Y-29500D01*
X71000Y-30500D02*
X72500Y-30500D01*
X71000Y-31500D02*
X72500Y-31500D01*
X71000Y-32500D02*
X72500Y-32500D01*
X71000Y-33500D02*
X72500Y-33500D01*
X69500Y-38500D02*
X70500Y-37500D01*
X74500Y-31500D02*
X75500Y-31500D01*
X74000Y-32000D02*
X74500Y-31500D01*
X74000Y-35500D02*
X74000Y-32000D01*
X72000Y-37500D02*
X74000Y-35500D01*
X70500Y-37500D02*
X72000Y-37500D01*
X44000Y-42500D02*
X44000Y-42000D01*
X39500Y-40500D02*
X37500Y-42500D01*
X42500Y-40500D02*
X39500Y-40500D01*
X44000Y-42000D02*
X42500Y-40500D01*
X44000Y-23500D02*
X45000Y-22500D01*
X46500Y-22500D02*
X47500Y-23500D01*
X45500Y-22500D02*
X46500Y-22500D01*
X45000Y-22500D02*
X45500Y-22500D01*
X45000Y-23500D02*
X46500Y-23500D01*
X43000Y-42500D02*
X43000Y-42000D01*
X40000Y-41000D02*
X38500Y-42500D01*
X40500Y-41000D02*
X40000Y-41000D01*
X42000Y-41000D02*
X40500Y-41000D01*
X43000Y-42000D02*
X42000Y-41000D01*
X74000Y-42500D02*
X74000Y-42000D01*
X70500Y-41000D02*
X69500Y-42000D01*
X73000Y-41000D02*
X70500Y-41000D01*
X74000Y-42000D02*
X73000Y-41000D01*
X69500Y-42000D02*
X69500Y-42500D01*
X69500Y-42000D02*
X69500Y-42500D01*
X55000Y-23500D02*
X56500Y-23500D01*
X42000Y-42500D02*
X42000Y-42000D01*
X40500Y-41500D02*
X39500Y-42500D01*
X41500Y-41500D02*
X40500Y-41500D01*
X42000Y-42000D02*
X41500Y-41500D01*
X39500Y-23500D02*
X41000Y-23500D01*
X39500Y-38500D02*
X40000Y-38000D01*
X44000Y-32500D02*
X44500Y-32500D01*
X43500Y-33000D02*
X44000Y-32500D01*
X43500Y-36000D02*
X43500Y-33000D01*
X41500Y-38000D02*
X43500Y-36000D01*
X40000Y-38000D02*
X41500Y-38000D01*
X37500Y-38500D02*
X39000Y-37000D01*
X43500Y-30500D02*
X44500Y-30500D01*
X42500Y-31500D02*
X43500Y-30500D01*
X42500Y-35000D02*
X42500Y-31500D01*
X40500Y-37000D02*
X42500Y-35000D01*
X39000Y-37000D02*
X40500Y-37000D01*
X74000Y-23500D02*
X75500Y-22000D01*
X78000Y-22000D02*
X79500Y-23500D01*
X77000Y-22000D02*
X78000Y-22000D01*
X75500Y-22000D02*
X77000Y-22000D01*
X44500Y-28500D02*
X44000Y-28000D01*
X40000Y-28000D02*
X39500Y-27500D01*
X44000Y-28000D02*
X40000Y-28000D01*
X44500Y-29500D02*
X44000Y-29000D01*
X40000Y-29000D02*
X38500Y-27500D01*
X44000Y-29000D02*
X40000Y-29000D01*
X38500Y-38500D02*
X39500Y-37500D01*
X43500Y-31500D02*
X44500Y-31500D01*
X43000Y-32000D02*
X43500Y-31500D01*
X43000Y-35500D02*
X43000Y-32000D01*
X41000Y-37500D02*
X43000Y-35500D01*
X39500Y-37500D02*
X41000Y-37500D01*
X46500Y-27500D02*
X46500Y-31500D01*
X46500Y-31500D02*
X44500Y-33500D01*
X47500Y-27500D02*
X47500Y-31500D01*
X47500Y-31500D02*
X44500Y-34500D01*
X38500Y-23500D02*
X39500Y-22500D01*
X41000Y-22500D02*
X42000Y-23500D01*
X39500Y-22500D02*
X41000Y-22500D01*
X40000Y-31500D02*
X41500Y-31500D01*
X40000Y-32500D02*
X41500Y-32500D01*
X40000Y-33500D02*
X41500Y-33500D01*
X40000Y-34500D02*
X41500Y-34500D01*
X40000Y-30500D02*
X41500Y-30500D01*
X40000Y-29500D02*
X41500Y-29500D01*
X43000Y-23500D02*
X44500Y-22000D01*
X47000Y-22000D02*
X48500Y-23500D01*
X46500Y-22000D02*
X47000Y-22000D01*
X44500Y-22000D02*
X46500Y-22000D01*
X55500Y-30500D02*
X57000Y-30500D01*
X58500Y-42500D02*
X58500Y-42000D01*
X54000Y-42000D02*
X54000Y-42500D01*
X55000Y-41000D02*
X54000Y-42000D01*
X56000Y-41000D02*
X55000Y-41000D01*
X57500Y-41000D02*
X56000Y-41000D01*
X58500Y-42000D02*
X57500Y-41000D01*
X59500Y-42500D02*
X59500Y-42000D01*
X53000Y-42000D02*
X53000Y-42500D01*
X54500Y-40500D02*
X53000Y-42000D01*
X55500Y-40500D02*
X54500Y-40500D01*
X58000Y-40500D02*
X55500Y-40500D01*
X59500Y-42000D02*
X58000Y-40500D01*
X55500Y-29500D02*
X57000Y-29500D01*
X55500Y-31500D02*
X57000Y-31500D01*
X55500Y-32500D02*
X57000Y-32500D01*
X55500Y-33500D02*
X57000Y-33500D01*
X55500Y-34500D02*
X57000Y-34500D01*
X57500Y-42500D02*
X57500Y-42000D01*
X55500Y-41500D02*
X55000Y-42000D01*
X57000Y-41500D02*
X55500Y-41500D01*
X57500Y-42000D02*
X57000Y-41500D01*
X55000Y-42000D02*
X55000Y-42500D01*
X55000Y-42000D02*
X55000Y-42500D01*
X60500Y-23500D02*
X62000Y-23500D01*
X59500Y-23500D02*
X60500Y-22500D01*
X62000Y-22500D02*
X63000Y-23500D01*
X60500Y-22500D02*
X62000Y-22500D01*
X54000Y-23500D02*
X55000Y-22500D01*
X56500Y-22500D02*
X57500Y-23500D01*
X55000Y-22500D02*
X56500Y-22500D01*
X62000Y-27500D02*
X62000Y-31500D01*
X62000Y-31500D02*
X60000Y-33500D01*
X58500Y-23500D02*
X60000Y-22000D01*
X62500Y-22000D02*
X64000Y-23500D01*
X60000Y-22000D02*
X62500Y-22000D01*
X60000Y-32500D02*
X59500Y-32500D01*
X59500Y-32500D02*
X59000Y-33000D01*
X59000Y-33000D02*
X59000Y-36000D01*
X59000Y-36000D02*
X57000Y-38000D01*
X57000Y-38000D02*
X55500Y-38000D01*
X55500Y-38000D02*
X55000Y-38500D01*
X59000Y-33000D02*
X59500Y-32500D01*
X59000Y-36000D02*
X59000Y-33000D01*
X63000Y-27500D02*
X63000Y-31500D01*
X63000Y-31500D02*
X60000Y-34500D01*
X60000Y-29500D02*
X59500Y-29000D01*
X55500Y-29000D02*
X54000Y-27500D01*
X59500Y-29000D02*
X55500Y-29000D01*
X53000Y-38500D02*
X54500Y-37000D01*
X59000Y-30500D02*
X60000Y-30500D01*
X58000Y-31500D02*
X59000Y-30500D01*
X58000Y-35000D02*
X58000Y-31500D01*
X56000Y-37000D02*
X58000Y-35000D01*
X54500Y-37000D02*
X56000Y-37000D01*
X60000Y-28500D02*
X59500Y-28000D01*
X55500Y-28000D02*
X55000Y-27500D01*
X59500Y-28000D02*
X55500Y-28000D01*
X54000Y-38500D02*
X55000Y-37500D01*
X59000Y-31500D02*
X60000Y-31500D01*
X58500Y-32000D02*
X59000Y-31500D01*
X58500Y-35500D02*
X58500Y-32000D01*
X56500Y-37500D02*
X58500Y-35500D01*
X55000Y-37500D02*
X56500Y-37500D01*
X33000Y-34500D02*
X33000Y-30500D01*
X33500Y-29000D02*
X34000Y-29000D01*
X33000Y-29500D02*
X33500Y-29000D01*
X33000Y-30500D02*
X33000Y-29500D01*
X31250Y-39000D02*
X30000Y-37750D01*
X30000Y-37750D02*
X30000Y-37500D01*
X34000Y-34500D02*
X33000Y-34500D01*
X33000Y-34500D02*
X30000Y-37500D01*
M02*
