M48
INCH,TZ
T10C0.025
T11C0.032
T12C0.040
T13C0.100
T14C0.126
%
T10
X048500Y-35500
X050500Y-33500
X064000Y-35500
X066000Y-33500
T11
X028000Y-20000
X028000Y-21000
X028000Y-22000
X028000Y-23000
X028000Y-24000
X028000Y-25000
X028000Y-26000
X028000Y-27000
X028000Y-28000
X028000Y-29000
X028000Y-30000
X028000Y-31000
X030000Y-37500
X031250Y-39000
X032500Y-39000
X034000Y-20000
X034000Y-21000
X034000Y-22000
X034000Y-23000
X034000Y-24000
X034000Y-25000
X034000Y-26000
X034000Y-27000
X034000Y-28000
X034000Y-29000
X034000Y-30000
X034000Y-31000
X034000Y-37500
X037000Y-26750
X037000Y-28000
X037000Y-29500
X037000Y-30500
X037000Y-31500
X037000Y-32500
X037000Y-33500
X037000Y-34500
X037000Y-35500
X037000Y-36500
X037500Y-38500
X037500Y-42500
X038500Y-23500
X038500Y-27500
X038500Y-38500
X038500Y-42500
X039500Y-23500
X039500Y-27500
X039500Y-38500
X039500Y-42500
X040000Y-29500
X040000Y-30500
X040000Y-31500
X040000Y-32500
X040000Y-33500
X040000Y-34500
X040000Y-35500
X040000Y-36500
X041000Y-23500
X041000Y-42500
X041500Y-27500
X041500Y-28500
X041500Y-29500
X041500Y-30500
X041500Y-31500
X041500Y-32500
X041500Y-33500
X041500Y-34500
X042000Y-23500
X042000Y-42500
X043000Y-23500
X043000Y-42500
X044000Y-23500
X044000Y-42500
X044500Y-27500
X044500Y-28500
X044500Y-29500
X044500Y-30500
X044500Y-31500
X044500Y-32500
X044500Y-33500
X044500Y-34500
X045000Y-23500
X045000Y-42500
X046500Y-23500
X046500Y-27500
X047500Y-23500
X047500Y-27500
X048500Y-23500
X048500Y-27500
X052500Y-26750
X052500Y-28000
X052500Y-29500
X052500Y-30500
X052500Y-31500
X052500Y-32500
X052500Y-33500
X052500Y-34500
X052500Y-35500
X052500Y-36500
X053000Y-38500
X053000Y-42500
X054000Y-23500
X054000Y-27500
X054000Y-38500
X054000Y-42500
X055000Y-23500
X055000Y-27500
X055000Y-38500
X055000Y-42500
X055500Y-29500
X055500Y-30500
X055500Y-31500
X055500Y-32500
X055500Y-33500
X055500Y-34500
X055500Y-35500
X055500Y-36500
X056500Y-23500
X056500Y-42500
X057000Y-27500
X057000Y-28500
X057000Y-29500
X057000Y-30500
X057000Y-31500
X057000Y-32500
X057000Y-33500
X057000Y-34500
X057500Y-23500
X057500Y-42500
X058500Y-23500
X058500Y-42500
X059500Y-23500
X059500Y-42500
X060000Y-27500
X060000Y-28500
X060000Y-29500
X060000Y-30500
X060000Y-31500
X060000Y-32500
X060000Y-33500
X060000Y-34500
X060500Y-23500
X060500Y-42500
X062000Y-23500
X062000Y-27500
X063000Y-23500
X063000Y-27500
X064000Y-23500
X064000Y-27500
X068000Y-26750
X068000Y-28000
X068000Y-29500
X068000Y-30500
X068000Y-31500
X068000Y-32500
X068000Y-33500
X068000Y-34500
X068000Y-35500
X068000Y-36500
X068500Y-38500
X068500Y-42500
X069500Y-23500
X069500Y-27500
X069500Y-38500
X069500Y-42500
X070500Y-23500
X070500Y-27500
X070500Y-38500
X070500Y-42500
X071000Y-29500
X071000Y-30500
X071000Y-31500
X071000Y-32500
X071000Y-33500
X071000Y-34500
X071000Y-35500
X071000Y-36500
X072000Y-23500
X072000Y-42500
X072500Y-27500
X072500Y-28500
X072500Y-29500
X072500Y-30500
X072500Y-31500
X072500Y-32500
X072500Y-33500
X072500Y-34500
X073000Y-23500
X073000Y-42500
X074000Y-23500
X074000Y-42500
X075000Y-23500
X075000Y-42500
X075500Y-27500
X075500Y-28500
X075500Y-29500
X075500Y-30500
X075500Y-31500
X075500Y-32500
X075500Y-33500
X075500Y-34500
X076000Y-23500
X076000Y-42500
X077500Y-23500
X077500Y-27500
X078500Y-23500
X078500Y-27500
X079500Y-23500
X079500Y-27500
T12
X034000Y-33500
X034000Y-34500
X034000Y-35500
X034000Y-41000
X034000Y-42000
T13
X025750Y-33500G85X027250Y-33500
X025750Y-36000G85X027250Y-36000
X025750Y-40500G85X027250Y-40500
X025750Y-43000G85X027250Y-43000
X031250Y-45000G85X032750Y-45000
X031250Y-54000G85X032750Y-54000
X046250Y-45000G85X047750Y-45000
X046250Y-54000G85X047750Y-54000
X061250Y-45000G85X062750Y-45000
X061250Y-54000G85X062750Y-54000
T14
X025000Y-20500
X025000Y-55500
X080000Y-20500
X080000Y-55500
M30

